<svg xmlns="http://www.w3.org/2000/svg" width="1024" height="1024" viewBox="0 0 1024 1024">
<g>
<path d="M 586.90,355.22 L 588.24,355.33 L 591.09,355.64 L 592.90,355.90 L 596.72,356.58 L 599.51,357.18 L 600.92,357.54 L 603.70,358.27 L 604.98,358.65 L 607.42,359.42 L 608.40,359.79 L 612.38,361.49 L 614.64,362.72 L 615.75,363.52 L 618.01,365.27 L 619.34,366.49 L 620.72,367.76 L 621.49,368.51 L 623.09,370.08 L 624.00,370.99 L 629.18,376.60 L 632.25,380.38 L 633.60,382.29 L 636.16,386.14 L 637.26,388.10 L 639.33,392.04 L 640.19,394.06 L 641.77,398.12 L 642.39,400.21 L 643.50,404.41 L 643.88,406.58 L 644.52,410.95 L 644.67,413.21 L 644.86,417.76 L 644.79,420.12 L 644.50,429.50 L 638.50,429.83 L 635.45,429.90 L 632.96,429.90 L 631.60,429.87 L 625.92,429.68 L 623.43,429.50 L 614.36,428.84 L 613.28,415.01 L 612.92,410.63 L 612.70,408.19 L 612.59,407.16 L 612.36,405.23 L 612.24,404.40 L 611.97,402.84 L 611.81,402.15 L 611.09,399.57 L 610.55,398.31 L 609.97,397.03 L 609.62,396.32 L 608.88,394.86 L 608.44,394.01 L 605.59,389.07 L 603.63,386.11 L 602.62,384.81 L 600.58,382.32 L 599.54,381.25 L 597.43,379.23 L 596.36,378.40 L 594.19,376.85 L 593.09,376.26 L 590.88,375.21 L 589.75,374.86 L 587.50,374.30 L 586.35,374.20 L 584.06,374.13 L 582.91,374.29 L 579.41,375.24 L 577.40,376.32 L 576.56,377.10 L 574.95,378.83 L 574.29,379.94 L 573.05,382.34 L 572.55,383.80 L 571.63,387.19 L 571.24,389.47 L 571.15,390.63 L 571.07,392.99 L 571.14,394.20 L 571.36,396.64 L 571.59,397.91 L 572.12,400.48 L 572.51,401.83 L 573.36,404.55 L 573.91,405.98 L 575.08,408.89 L 575.79,410.42 L 577.30,413.53 L 578.18,415.18 L 580.27,418.65 L 581.78,420.69 L 582.64,421.59 L 584.43,423.31 L 585.47,424.08 L 587.65,425.56 L 588.93,426.22 L 591.62,427.51 L 593.19,428.10 L 596.50,429.25 L 598.42,429.80 L 602.46,430.89 L 604.80,431.42 L 609.69,432.50 L 612.50,433.05 L 616.96,433.99 L 619.57,434.61 L 620.73,434.93 L 622.95,435.58 L 623.95,435.93 L 625.87,436.66 L 626.75,437.06 L 630.09,438.82 L 631.67,439.98 L 633.25,441.19 L 634.06,441.89 L 635.72,443.35 L 636.60,444.18 L 640.88,448.87 L 643.08,452.05 L 643.89,453.75 L 645.31,457.23 L 645.78,459.16 L 646.54,463.16 L 646.71,465.43 L 646.70,471.68 L 646.21,475.92 L 645.72,478.09 L 644.59,482.43 L 643.78,484.65 L 642.01,489.10 L 640.88,491.36 L 638.47,495.91 L 637.02,498.22 L 633.98,502.87 L 632.21,505.23 L 628.53,509.97 L 626.45,512.38 L 622.13,517.21 L 619.73,519.66 L 612.73,526.82 L 618.11,527.41 L 619.52,527.56 L 620.74,527.69 L 621.47,527.76 L 624.68,528.08 L 626.62,528.27 L 630.68,528.67 L 632.86,528.88 L 637.30,529.30 L 639.50,529.51 L 651.89,530.68 L 659.54,531.42 L 663.02,531.76 L 669.76,532.43 L 672.77,532.74 L 678.53,533.33 L 681.02,533.59 L 683.45,533.85 L 684.56,533.97 L 686.71,534.20 L 687.68,534.31 L 689.54,534.52 L 690.37,534.62 L 691.94,534.81 L 692.62,534.89 L 693.89,535.05 L 694.41,535.12 L 695.37,535.26 L 695.73,535.31 L 696.37,535.42 L 696.57,535.47 L 696.88,535.54 L 696.91,535.57 L 696.77,536.38 L 696.22,537.21 L 695.78,537.65 L 694.51,538.55 L 693.31,539.14 L 692.55,539.43 L 690.92,540.00 L 689.96,540.27 L 687.93,540.81 L 686.77,541.07 L 684.38,541.58 L 683.05,541.83 L 680.31,542.30 L 678.82,542.53 L 675.78,542.97 L 674.15,543.18 L 670.82,543.58 L 669.07,543.77 L 661.80,544.47 L 657.87,544.75 L 649.83,545.26 L 645.60,545.44 L 637.02,545.73 L 632.62,545.78 L 623.75,545.83 L 619.30,545.76 L 613.19,545.67 L 609.50,545.64 L 607.85,545.63 L 604.66,545.63 L 603.25,545.64 L 600.56,545.68 L 599.39,545.71 L 597.17,545.77 L 596.23,545.82 L 594.47,545.92 L 593.76,545.98 L 592.44,546.12 L 591.94,546.20 L 591.06,546.37 L 590.77,546.47 L 589.05,547.27 L 587.60,548.09 L 586.80,548.60 L 583.43,550.89 L 581.90,552.13 L 576.30,556.32 L 572.53,558.78 L 570.63,559.84 L 566.80,561.85 L 564.86,562.69 L 560.97,564.26 L 559.00,564.88 L 554.64,566.11 L 551.31,566.94 L 549.48,567.35 L 545.72,568.17 L 543.72,568.56 L 539.64,569.34 L 537.54,569.71 L 528.95,571.11 L 524.70,571.68 L 520.46,572.21 L 518.42,572.43 L 514.39,572.84 L 512.50,572.99 L 508.33,573.31 L 506.35,573.45 L 502.44,573.71 L 500.59,573.83 L 493.41,574.22 L 490.15,574.34 L 483.83,574.51 L 480.95,574.52 L 475.36,574.46 L 472.78,574.35 L 467.76,574.05 L 465.42,573.82 L 460.82,573.28 L 458.63,572.93 L 454.31,572.14 L 452.20,571.66 L 448.00,570.62 L 445.90,570.00 L 441.47,568.54 L 438.68,567.45 L 437.38,566.86 L 434.83,565.64 L 433.64,564.98 L 431.34,563.63 L 430.29,562.91 L 428.25,561.44 L 427.33,560.66 L 425.56,559.08 L 424.79,558.25 L 423.30,556.57 L 422.67,555.69 L 421.49,553.92 L 421.02,552.99 L 419.49,549.32 L 418.91,546.98 L 418.83,545.86 L 418.83,543.66 L 419.05,542.61 L 419.63,540.54 L 420.15,539.54 L 421.33,537.59 L 422.14,536.65 L 423.91,534.80 L 425.03,533.91 L 427.41,532.16 L 428.83,531.31 L 431.82,529.64 L 433.55,528.83 L 438.75,526.74 L 442.58,525.53 L 444.74,525.02 L 449.27,524.06 L 451.86,523.66 L 454.51,523.28 L 455.94,523.10 L 458.85,522.77 L 460.42,522.62 L 463.62,522.33 L 465.34,522.21 L 468.85,521.97 L 470.74,521.87 L 474.60,521.67 L 476.66,521.59 L 480.89,521.44 L 483.15,521.38 L 487.76,521.26 L 490.23,521.22 L 495.27,521.14 L 497.96,521.12 L 503.45,521.07 L 506.37,521.06 L 512.33,521.05 L 515.50,521.05 L 526.73,521.11 L 533.64,521.18 L 536.80,521.23 L 542.94,521.35 L 545.74,521.43 L 551.14,521.60 L 553.57,521.71 L 558.26,521.93 L 560.34,522.06 L 564.34,522.33 L 566.08,522.49 L 569.41,522.82 L 570.83,523.00 L 573.51,523.38 L 574.61,523.59 L 576.48,523.72 L 577.64,523.45 L 578.31,523.06 L 579.01,522.63 L 579.41,522.33 L 580.25,521.68 L 580.74,521.27 L 581.76,520.37 L 582.37,519.83 L 583.63,518.66 L 584.38,517.97 L 587.26,515.09 L 589.29,512.91 L 590.34,511.71 L 594.57,506.69 L 596.61,504.03 L 600.59,498.66 L 602.27,496.12 L 603.89,493.63 L 604.58,492.47 L 605.89,490.21 L 606.40,489.20 L 608.36,484.93 L 609.43,482.15 L 609.85,480.80 L 610.61,478.10 L 610.87,476.79 L 611.30,474.17 L 611.41,472.89 L 611.53,470.33 L 611.47,469.07 L 611.28,466.57 L 611.07,465.34 L 610.56,462.87 L 610.20,461.65 L 609.38,459.22 L 608.85,458.01 L 607.45,454.92 L 606.52,453.19 L 605.96,452.43 L 604.75,450.97 L 603.94,450.28 L 602.14,448.91 L 600.92,448.21 L 599.63,447.49 L 598.89,447.12 L 597.34,446.35 L 596.45,445.95 L 594.59,445.11 L 593.53,444.66 L 591.32,443.74 L 590.08,443.24 L 587.49,442.20 L 586.03,441.63 L 583.02,440.45 L 581.34,439.81 L 577.87,438.48 L 575.95,437.75 L 571.98,436.24 L 569.80,435.41 L 561.19,431.39 L 556.03,428.22 L 553.76,426.41 L 549.43,422.67 L 547.60,420.61 L 544.16,416.39 L 542.79,414.13 L 540.30,409.53 L 539.43,407.11 L 538.62,404.69 L 538.31,403.45 L 537.76,400.97 L 537.59,399.71 L 537.31,397.18 L 537.27,395.90 L 537.26,393.34 L 537.36,392.05 L 537.64,389.47 L 537.89,388.18 L 538.45,385.59 L 538.84,384.29 L 541.07,378.37 L 542.84,374.96 L 543.92,373.48 L 546.20,370.63 L 547.57,369.35 L 550.49,366.88 L 552.23,365.72 L 557.48,362.59 L 561.04,360.84 L 562.94,360.10 L 566.85,358.70 L 569.04,358.09 L 573.57,356.92 L 576.17,356.39 L 580.79,355.55 L 583.32,355.24 L 584.51,355.21 M 484.33,533.25 L 479.82,533.38 L 477.58,533.54 L 473.12,533.92 L 470.98,534.20 L 466.78,534.82 L 464.85,535.20 L 461.11,536.01 L 459.49,536.48 L 456.42,537.46 L 455.22,538.01 L 454.07,538.57 L 453.59,538.86 L 452.70,539.44 L 452.36,539.75 L 451.18,541.08 L 450.58,542.08 L 450.37,542.62 L 449.78,544.86 L 449.85,546.03 L 450.22,548.37 L 450.76,549.46 L 451.36,550.54 L 451.74,551.03 L 452.57,551.99 L 453.08,552.41 L 455.45,554.26 L 456.09,554.69 L 456.32,554.83 L 456.73,555.05 L 456.83,555.06 L 457.64,555.23 L 458.66,555.48 L 459.36,555.65 L 460.86,556.04 L 461.73,556.26 L 463.54,556.74 L 464.50,557.00 L 466.58,557.51 L 467.74,557.73 L 470.14,558.13 L 471.45,558.29 L 476.92,558.84 L 479.98,558.97 L 486.28,559.12 L 489.62,559.05 L 496.42,558.83 L 499.90,558.59 L 506.87,558.02 L 510.32,557.61 L 517.15,556.70 L 520.41,556.14 L 526.79,554.93 L 529.69,554.22 L 532.54,553.49 L 533.88,553.10 L 536.49,552.30 L 537.68,551.88 L 544.75,549.18 L 549.27,547.26 L 551.21,546.34 L 553.10,545.43 L 553.92,545.01 L 555.48,544.19 L 556.11,543.82 L 557.26,543.12 L 557.65,542.83 L 558.32,542.29 L 558.44,542.10 L 558.31,541.56 L 557.76,541.20 L 557.27,541.02 L 556.14,540.66 L 555.36,540.48 L 553.67,540.12 L 552.62,539.95 L 550.39,539.60 L 549.08,539.43 L 546.33,539.10 L 544.77,538.94 L 541.53,538.62 L 539.73,538.47 L 536.02,538.17 L 534.00,538.03 L 529.18,537.68 L 526.31,537.47 L 524.98,537.35 L 519.90,536.90 L 517.31,536.61 L 514.70,536.32 L 513.28,536.14 L 510.37,535.78 L 508.74,535.56 L 505.35,535.10 L 503.41,534.83 L 499.35,534.27 L 497.00,533.94 L 490.90,533.37 L 486.56,533.22 M 550.90,285.60 L 551.38,285.62 L 551.95,285.64 L 552.35,285.65 L 554.22,285.69 L 555.49,285.71 L 558.26,285.76 L 559.87,285.78 L 563.21,285.83 L 565.00,285.85 L 568.95,285.91 L 571.13,285.95 L 572.01,285.98 L 573.65,286.05 L 574.30,286.10 L 575.48,286.20 L 575.93,286.26 L 576.72,286.41 L 577.00,286.50 L 577.48,286.70 L 577.63,286.83 L 578.00,287.39 L 578.00,287.80 L 577.71,289.00 L 577.47,289.69 L 577.29,290.15 L 576.88,291.16 L 576.61,291.80 L 576.03,293.17 L 575.66,294.02 L 574.85,295.84 L 574.36,296.93 L 573.32,299.25 L 572.70,300.61 L 571.39,303.49 L 570.62,305.16 L 569.00,308.66 L 568.07,310.67 L 566.13,314.86 L 565.02,317.23 L 562.72,322.17 L 561.43,324.94 L 558.74,330.69 L 557.24,333.89 L 554.14,340.52 L 552.42,344.18 L 550.68,347.90 L 549.76,349.86 L 547.90,353.82 L 546.93,355.90 L 544.95,360.12 L 543.91,362.32 L 541.81,366.80 L 540.71,369.14 L 538.48,373.89 L 537.32,376.36 L 534.96,381.38 L 533.73,384.00 L 529.65,392.69 L 526.70,398.96 L 525.15,402.26 L 518.78,415.83 L 515.52,422.77 L 512.27,429.69 L 510.68,433.08 L 507.52,439.80 L 506.01,443.02 L 503.05,449.33 L 501.67,452.26 L 499.00,457.96 L 497.80,460.50 L 494.26,468.02 L 491.96,472.90 L 490.86,475.22 L 488.70,479.79 L 487.68,481.92 L 485.71,486.07 L 484.81,487.95 L 483.07,491.57 L 482.31,493.15 L 480.88,496.12 L 480.29,497.33 L 479.20,499.55 L 478.81,500.34 L 478.44,501.07 L 478.30,501.35 L 478.04,501.85 L 477.95,502.00 L 476.96,503.75 L 476.54,504.36 L 475.72,505.42 L 475.30,505.75 L 474.43,506.28 L 473.90,506.42 L 472.75,506.62 L 471.99,506.65 L 469.85,506.55 L 467.79,506.34 L 466.53,506.18 L 463.89,505.82 L 462.44,505.60 L 459.50,505.14 L 458.00,504.89 L 455.03,504.38 L 453.63,504.12 L 450.92,503.60 L 449.75,503.35 L 447.56,502.87 L 446.76,502.66 L 446.02,502.46 L 445.74,502.37 L 445.24,502.19 L 445.10,502.12 L 444.55,501.69 L 444.12,501.18 L 443.85,500.74 L 443.26,499.72 L 442.87,498.95 L 442.01,497.22 L 441.45,496.01 L 440.87,494.75 L 440.54,494.02 L 439.84,492.48 L 439.45,491.61 L 438.65,489.79 L 438.19,488.76 L 437.25,486.63 L 436.73,485.43 L 435.65,482.96 L 435.05,481.58 L 433.82,478.74 L 433.14,477.17 L 431.73,473.93 L 430.97,472.15 L 429.39,468.50 L 428.52,466.50 L 426.87,462.68 L 425.65,459.84 L 424.99,458.32 L 422.23,451.97 L 420.78,448.62 L 417.84,441.86 L 416.43,438.61 L 415.03,435.39 L 414.36,433.86 L 413.06,430.88 L 412.46,429.50 L 408.85,421.22 L 406.53,415.87 L 405.49,413.47 L 404.47,411.12 L 404.01,410.06 L 403.12,408.00 L 402.74,407.10 L 402.00,405.40 L 401.71,404.71 L 401.17,403.45 L 400.98,403.00 L 400.24,401.27 L 399.58,399.74 L 399.18,398.82 L 398.35,396.88 L 397.87,395.77 L 396.88,393.49 L 396.34,392.24 L 394.07,387.01 L 392.83,384.17 L 390.32,378.39 L 389.06,375.50 L 386.42,369.45 L 384.79,365.68 L 384.03,363.94 L 382.56,360.52 L 381.88,358.94 L 380.56,355.87 L 379.96,354.45 L 378.79,351.70 L 378.26,350.43 L 377.23,347.98 L 376.77,346.87 L 375.88,344.71 L 375.48,343.73 L 374.72,341.85 L 374.39,341.00 L 373.76,339.38 L 373.48,338.66 L 372.97,337.28 L 372.75,336.68 L 372.00,334.49 L 371.78,333.71 L 371.44,332.34 L 371.40,331.92 L 371.42,331.24 L 371.55,331.13 L 372.14,330.89 L 372.81,330.77 L 373.26,330.73 L 374.23,330.67 L 374.82,330.65 L 376.05,330.63 L 376.75,330.63 L 379.74,330.70 L 381.43,330.78 L 384.91,330.98 L 386.70,331.13 L 390.28,331.44 L 391.96,331.62 L 395.22,332.01 L 396.60,332.22 L 397.92,332.43 L 398.49,332.54 L 399.58,332.76 L 400.01,332.87 L 400.81,333.09 L 401.08,333.20 L 401.53,333.42 L 401.61,333.53 L 402.22,334.57 L 402.51,335.14 L 402.69,335.51 L 403.08,336.31 L 403.31,336.81 L 403.80,337.88 L 404.09,338.53 L 404.70,339.90 L 405.06,340.71 L 405.81,342.42 L 406.24,343.42 L 407.15,345.50 L 407.66,346.70 L 408.74,349.21 L 409.35,350.62 L 410.61,353.58 L 411.31,355.24 L 412.78,358.68 L 413.59,360.59 L 415.28,364.56 L 416.20,366.75 L 418.12,371.28 L 419.17,373.76 L 421.34,378.89 L 422.52,381.69 L 424.96,387.45 L 426.28,390.58 L 428.99,397.02 L 430.46,400.50 L 434.33,409.67 L 435.54,412.52 L 436.11,413.85 L 437.21,416.45 L 437.71,417.62 L 438.67,419.90 L 439.09,420.88 L 439.89,422.76 L 440.22,423.52 L 440.82,424.93 L 441.04,425.43 L 441.42,426.29 L 441.51,426.50 L 441.86,427.30 L 442.17,428.03 L 442.37,428.48 L 443.25,430.54 L 443.81,431.86 L 445.01,434.69 L 445.69,436.33 L 447.13,439.74 L 447.90,441.58 L 451.12,449.29 L 452.75,453.20 L 454.36,457.08 L 455.13,458.94 L 456.64,462.57 L 457.32,464.22 L 458.60,467.23 L 459.40,468.99 L 459.75,469.69 L 460.40,470.96 L 460.63,471.36 L 461.04,471.97 L 461.13,471.97 L 461.48,471.73 L 461.78,471.33 L 461.96,471.04 L 462.70,469.64 L 463.06,468.75 L 463.42,467.90 L 463.81,467.04 L 464.07,466.45 L 464.65,465.20 L 465.00,464.42 L 465.76,462.78 L 466.20,461.82 L 467.14,459.80 L 467.67,458.65 L 468.79,456.26 L 469.41,454.93 L 470.69,452.18 L 471.40,450.67 L 472.85,447.56 L 473.64,445.88 L 475.26,442.43 L 476.13,440.58 L 477.91,436.79 L 478.86,434.77 L 480.80,430.65 L 481.83,428.47 L 483.93,424.03 L 485.03,421.69 L 487.27,416.94 L 488.45,414.44 L 490.84,409.38 L 492.09,406.74 L 494.63,401.38 L 495.95,398.59 L 498.62,392.93 L 500.01,390.00 L 500.90,388.11 L 501.59,386.67 L 501.97,385.86 L 503.60,382.41 L 504.55,380.40 L 506.53,376.19 L 507.63,373.85 L 509.91,369.03 L 511.12,366.45 L 513.61,361.18 L 514.90,358.43 L 517.52,352.87 L 518.86,350.03 L 524.25,338.57 L 526.87,333.00 L 530.62,325.04 L 532.90,320.20 L 533.93,318.01 L 535.93,313.78 L 536.83,311.87 L 538.57,308.19 L 539.35,306.55 L 540.86,303.40 L 541.53,302.00 L 542.81,299.32 L 543.38,298.15 L 544.47,295.92 L 544.95,294.95 L 545.86,293.12 L 546.25,292.34 L 547.00,290.87 L 547.32,290.26 L 547.94,289.11 L 548.20,288.65 L 548.69,287.79 L 548.90,287.45 L 549.30,286.83 L 549.46,286.61 L 550.06,285.89 L 550.28,285.75 L 550.70,285.58 Z" fill="rgba(12,35,68,1)"/>
<path d="M 253.48,723.15 L 252.10,722.42 L 248.91,720.65 L 248.14,720.22 L 246.73,719.40 L 244.98,718.36 L 244.51,718.07 L 243.01,717.21 L 242.16,716.74 L 239.97,715.53 L 238.78,714.89 L 235.96,713.37 L 234.47,712.58 L 231.09,710.79 L 229.33,709.86 L 225.46,707.83 L 223.46,706.79 L 219.16,704.56 L 216.97,703.42 L 212.31,701.02 L 205.00,697.27 L 203.28,696.39 L 200.04,694.68 L 198.48,693.85 L 195.79,692.38 L 195.16,692.03 L 194.06,691.40 L 193.54,691.10 L 192.68,690.59 L 192.29,690.35 L 191.71,689.98 L 191.19,689.59 L 191.04,689.44 L 190.69,688.83 L 190.51,688.48 L 190.12,687.50 L 189.92,686.97 L 189.51,685.68 L 189.29,685.00 L 188.86,683.45 L 188.43,681.86 L 187.59,678.16 L 186.50,672.31 L 186.36,671.43 L 185.81,669.23 L 184.84,666.31 L 184.50,665.47 L 184.03,664.30 L 183.81,663.72 L 183.40,662.43 L 183.28,662.06 L 183.02,661.15 L 182.88,660.66 L 182.54,659.43 L 182.35,658.76 L 181.90,657.10 L 181.06,654.00 L 180.51,651.94 L 179.63,647.94 L 179.44,647.03 L 179.18,645.51 L 179.02,643.92 L 179.01,643.21 L 178.78,641.87 L 178.25,640.58 L 177.45,639.17 L 177.44,638.98 L 177.22,638.11 L 176.74,636.50 L 176.56,635.95 L 176.12,634.35 L 175.57,632.00 L 175.51,631.66 L 175.30,630.71 L 175.20,630.21 L 174.94,629.06 L 174.12,625.50 L 173.99,624.95 L 173.62,623.32 L 173.42,622.43 L 172.95,620.32 L 171.46,613.50 L 170.99,611.30 L 169.96,607.22 L 169.71,606.30 L 169.27,604.81 L 168.75,603.34 L 168.45,602.69 L 168.18,601.10 L 168.10,600.22 L 168.28,597.94 L 168.35,597.31 L 168.60,595.87 L 168.74,595.12 L 169.11,593.40 L 169.32,592.50 L 169.82,590.46 L 170.74,587.00 L 171.30,584.94 L 172.38,580.53 L 172.63,579.49 L 173.05,577.64 L 173.48,575.50 L 173.67,574.40 L 174.20,572.38 L 174.33,571.93 L 174.59,571.20 L 174.94,570.50 L 175.00,570.43 L 175.16,570.05 L 175.26,569.83 L 175.50,569.16 L 175.75,568.44 L 176.44,566.27 L 176.80,565.09 L 177.64,562.24 L 178.96,557.50 L 179.85,554.20 L 181.80,547.26 L 182.27,545.63 L 183.09,542.78 L 183.29,542.11 L 183.63,540.95 L 184.07,539.50 L 184.33,538.67 L 185.04,536.26 L 185.42,534.96 L 186.29,531.88 L 189.02,522.00 L 189.44,520.42 L 190.29,517.26 L 190.71,515.71 L 191.48,512.85 L 191.85,511.49 L 192.46,509.27 L 192.59,508.77 L 192.82,507.94 L 193.08,507.00 L 193.35,506.04 L 193.88,504.05 L 194.01,503.59 L 194.22,502.78 L 194.45,501.87 L 194.50,501.65 L 194.68,500.96 L 194.77,500.59 L 195.01,499.68 L 195.82,496.69 L 196.09,495.71 L 196.37,494.03 L 196.41,493.67 L 196.42,493.11 L 196.30,492.64 L 196.23,492.57 L 196.23,492.22 L 196.26,492.02 L 196.42,491.46 L 197.38,489.32 L 197.46,489.18 L 197.71,488.58 L 197.84,488.23 L 198.18,487.25 L 198.36,486.72 L 198.78,485.39 L 199.01,484.69 L 199.51,483.06 L 200.03,481.35 L 201.26,477.19 L 201.90,475.00 L 203.30,470.09 L 204.01,467.57 L 205.49,462.22 L 206.24,459.52 L 207.72,454.04 L 208.45,451.30 L 209.85,445.98 L 211.76,438.50 L 211.83,438.22 L 212.04,437.41 L 212.16,436.96 L 212.47,435.84 L 212.80,434.65 L 213.69,431.56 L 214.15,429.93 L 215.22,426.25 L 216.92,420.50 L 217.20,419.54 L 217.83,417.38 L 218.16,416.27 L 218.85,413.88 L 219.56,411.45 L 221.05,406.21 L 221.80,403.58 L 223.24,398.43 L 225.14,391.50 L 226.26,387.38 L 228.72,378.56 L 229.30,376.47 L 230.35,372.79 L 230.60,371.93 L 231.04,370.41 L 231.60,368.50 L 232.25,366.30 L 233.42,361.77 L 233.67,360.71 L 234.07,358.88 L 234.44,356.83 L 234.56,355.81 L 235.07,353.69 L 235.21,353.20 L 235.51,352.32 L 235.96,351.33 L 236.03,351.20 L 236.29,350.52 L 236.44,350.10 L 236.83,348.90 L 237.04,348.24 L 237.56,346.58 L 237.82,345.71 L 238.43,343.68 L 238.74,342.63 L 239.42,340.31 L 239.77,339.12 L 240.50,336.58 L 241.24,334.00 L 242.79,328.48 L 243.56,325.71 L 245.06,320.28 L 245.78,317.63 L 247.04,312.88 L 247.33,311.76 L 247.85,309.75 L 248.10,308.80 L 248.50,307.17 L 248.68,306.40 L 248.95,305.22 L 249.17,304.04 L 249.22,303.66 L 249.59,302.82 L 249.81,302.40 L 250.48,301.50 L 253.50,298.80 L 254.45,298.14 L 256.00,297.10 L 256.76,296.60 L 258.31,295.65 L 259.14,295.16 L 261.19,294.00 L 261.76,293.68 L 263.08,292.96 L 265.40,291.70 L 266.20,291.27 L 267.62,290.35 L 267.94,290.13 L 268.44,289.75 L 268.90,289.30 L 268.98,289.19 L 269.51,288.79 L 269.82,288.57 L 270.72,288.01 L 274.25,286.08 L 274.90,285.75 L 276.09,285.10 L 276.66,284.77 L 277.60,284.19 L 278.04,283.91 L 278.63,283.46 L 279.00,283.00 L 279.00,282.91 L 279.36,282.55 L 279.58,282.35 L 280.32,281.84 L 283.50,280.00 L 284.74,279.36 L 286.68,278.15 L 287.09,277.87 L 287.64,277.42 L 288.00,276.95 L 288.00,276.75 L 288.73,276.25 L 290.50,275.59 L 291.19,275.42 L 292.27,274.86 L 293.00,273.98 L 293.00,273.71 L 293.44,273.29 L 294.50,273.00 L 294.91,273.00 L 295.56,272.71 L 296.00,272.00 L 296.00,271.72 L 296.53,271.29 L 297.81,271.00 L 298.31,271.00 L 299.72,270.41 L 301.77,269.00 L 302.36,268.45 L 303.59,267.59 L 304.96,267.00 L 305.24,267.00 L 305.69,266.71 L 306.00,266.00 L 306.00,265.73 L 306.37,265.29 L 307.26,265.00 L 307.42,265.00 L 308.13,264.71 L 308.54,264.53 L 309.64,263.94 L 310.82,263.29 L 313.74,261.50 L 315.19,260.58 L 317.78,258.79 L 318.35,258.38 L 319.23,257.69 L 320.00,256.94 L 320.07,256.84 L 320.55,256.48 L 320.84,256.27 L 321.67,255.75 L 325.00,253.89 L 326.24,253.25 L 328.74,251.73 L 329.32,251.36 L 330.32,250.67 L 331.41,249.81 L 332.37,248.93 L 334.59,247.69 L 335.20,247.42 L 336.64,247.00 L 337.40,246.81 L 339.21,246.53 L 340.17,246.40 L 342.46,246.25 L 343.67,246.19 L 346.55,246.15 L 348.07,246.14 L 351.64,246.21 L 357.89,246.40 L 358.49,246.42 L 360.41,246.46 L 361.48,246.48 L 364.29,246.53 L 365.81,246.55 L 369.45,246.59 L 371.38,246.62 L 375.81,246.66 L 378.12,246.68 L 383.29,246.72 L 385.96,246.74 L 391.80,246.79 L 394.80,246.81 L 401.26,246.85 L 404.57,246.87 L 411.60,246.90 L 415.18,246.92 L 422.73,246.96 L 426.56,246.98 L 434.57,247.01 L 438.62,247.03 L 447.04,247.06 L 451.29,247.07 L 460.06,247.10 L 464.48,247.11 L 473.54,247.14 L 478.11,247.15 L 487.42,247.17 L 516.00,247.22 L 525.66,247.23 L 544.56,247.27 L 549.23,247.28 L 558.41,247.30 L 562.96,247.31 L 571.86,247.34 L 576.26,247.35 L 584.83,247.38 L 589.06,247.39 L 597.24,247.42 L 601.28,247.43 L 609.02,247.46 L 612.83,247.48 L 620.07,247.51 L 623.63,247.53 L 630.33,247.56 L 633.61,247.58 L 639.71,247.62 L 642.68,247.63 L 648.13,247.67 L 650.77,247.69 L 655.51,247.73 L 657.78,247.74 L 661.76,247.78 L 663.65,247.80 L 666.82,247.84 L 668.29,247.86 L 670.59,247.90 L 673.00,247.95 L 674.83,248.01 L 677.93,248.13 L 679.39,248.19 L 681.84,248.31 L 682.99,248.37 L 684.89,248.51 L 685.79,248.59 L 687.24,248.76 L 687.92,248.85 L 689.02,249.07 L 689.53,249.19 L 690.39,249.47 L 692.50,250.60 L 693.02,250.97 L 694.22,251.78 L 694.86,252.21 L 696.33,253.19 L 697.12,253.70 L 698.95,254.88 L 699.92,255.51 L 702.18,256.94 L 703.37,257.70 L 706.13,259.44 L 707.59,260.35 L 710.93,262.44 L 712.68,263.54 L 716.68,266.03 L 723.50,270.26 L 724.67,270.98 L 727.20,272.55 L 728.49,273.35 L 731.21,275.04 L 733.95,276.74 L 739.62,280.26 L 742.43,282.00 L 747.72,285.29 L 748.99,286.08 L 751.34,287.53 L 754.50,289.50 L 756.42,290.69 L 760.14,293.09 L 761.94,294.26 L 765.13,296.43 L 765.88,296.94 L 767.22,297.88 L 767.86,298.34 L 768.94,299.14 L 769.45,299.52 L 770.23,300.15 L 771.03,300.86 L 771.35,301.21 L 771.95,302.00 L 772.25,302.44 L 772.88,303.67 L 773.20,304.36 L 773.95,306.33 L 774.15,306.88 L 774.58,308.18 L 774.81,308.86 L 775.31,310.45 L 775.56,311.29 L 776.14,313.21 L 776.44,314.22 L 777.10,316.52 L 777.44,317.71 L 778.20,320.42 L 778.59,321.83 L 779.47,324.98 L 779.92,326.62 L 780.91,330.26 L 781.43,332.15 L 782.56,336.32 L 783.14,338.47 L 784.42,343.21 L 786.52,351.00 L 786.88,352.34 L 787.68,355.27 L 788.09,356.77 L 788.96,359.95 L 789.84,363.17 L 791.71,369.91 L 792.65,373.27 L 794.45,379.67 L 794.89,381.21 L 795.71,384.09 L 796.83,388.00 L 797.18,389.21 L 798.02,392.11 L 798.45,393.63 L 799.43,397.09 L 799.94,398.87 L 801.03,402.74 L 801.59,404.72 L 802.76,408.88 L 803.95,413.10 L 806.39,421.86 L 809.90,434.50 L 811.00,438.49 L 813.36,447.06 L 814.55,451.37 L 816.88,459.83 L 817.45,461.89 L 818.54,465.82 L 819.07,467.74 L 820.05,471.31 L 820.53,473.03 L 821.37,476.09 L 822.45,480.00 L 823.07,482.27 L 824.53,487.51 L 825.27,490.19 L 826.83,495.77 L 827.60,498.53 L 829.06,503.76 L 829.42,505.02 L 830.07,507.35 L 830.96,510.50 L 831.48,512.35 L 832.60,516.31 L 833.17,518.32 L 834.35,522.55 L 835.55,526.83 L 838.08,535.89 L 839.35,540.46 L 841.91,549.68 L 843.18,554.25 L 845.62,563.06 L 846.21,565.21 L 847.35,569.34 L 847.91,571.36 L 848.96,575.19 L 849.47,577.06 L 850.42,580.52 L 850.87,582.20 L 851.70,585.23 L 852.09,586.68 L 852.77,589.19 L 853.09,590.38 L 853.61,592.31 L 853.84,593.20 L 854.18,594.48 L 854.45,595.60 L 854.51,595.88 L 854.46,596.96 L 854.41,597.60 L 854.14,599.43 L 853.98,600.45 L 853.46,603.09 L 853.18,604.53 L 852.41,608.05 L 851.99,609.92 L 850.96,614.38 L 850.41,616.74 L 849.09,622.19 L 848.74,623.62 L 847.99,626.68 L 847.61,628.24 L 846.79,631.57 L 846.36,633.27 L 845.46,636.87 L 844.02,642.60 L 843.26,645.62 L 841.79,651.45 L 841.06,654.32 L 839.68,659.76 L 839.01,662.43 L 837.76,667.36 L 837.15,669.75 L 836.06,674.05 L 835.54,676.10 L 834.64,679.64 L 834.21,681.30 L 833.53,683.95 L 833.38,684.56 L 833.12,685.57 L 832.99,686.05 L 832.80,686.80 L 832.71,687.15 L 832.58,687.62 L 832.48,688.00 L 832.41,688.21 L 832.28,688.57 L 832.20,688.75 L 831.77,689.19 L 831.49,689.43 L 830.43,690.14 L 830.11,690.34 L 829.29,690.83 L 828.85,691.09 L 827.75,691.72 L 827.17,692.05 L 825.75,692.83 L 825.00,693.25 L 823.22,694.21 L 822.28,694.72 L 820.10,695.89 L 818.95,696.51 L 816.33,697.91 L 814.95,698.64 L 811.83,700.30 L 810.21,701.16 L 806.56,703.09 L 804.66,704.10 L 800.43,706.34 L 793.40,710.06 L 791.33,711.16 L 787.30,713.26 L 785.31,714.30 L 781.51,716.25 L 779.65,717.20 L 776.17,718.96 L 774.47,719.81 L 771.39,721.32 L 769.91,722.04 L 767.33,723.27 L 766.11,723.84 L 764.12,724.74 L 763.20,725.15 L 761.88,725.67 L 760.75,726.00 L 760.29,726.00 L 759.23,725.61 L 758.94,725.46 L 758.26,725.00 L 757.90,724.73 L 757.05,723.98 L 756.60,723.57 L 755.53,722.48 L 754.97,721.89 L 753.63,720.41 L 752.93,719.61 L 751.28,717.67 L 750.42,716.63 L 748.41,714.18 L 747.35,712.88 L 744.94,709.85 L 743.67,708.25 L 740.80,704.59 L 739.30,702.67 L 735.92,698.32 L 734.17,696.05 L 730.24,690.94 L 728.20,688.29 L 723.67,682.38 L 722.50,680.85 L 720.04,677.62 L 718.79,675.98 L 716.16,672.53 L 714.82,670.78 L 712.02,667.10 L 710.59,665.23 L 707.61,661.32 L 706.10,659.33 L 702.94,655.17 L 697.98,648.65 L 697.19,647.61 L 695.45,645.33 L 694.56,644.16 L 692.67,641.69 L 690.75,639.18 L 686.72,633.93 L 684.71,631.31 L 680.86,626.31 L 679.94,625.11 L 678.20,622.86 L 675.83,619.80 L 674.37,617.92 L 671.67,614.39 L 670.38,612.70 L 668.21,609.79 L 667.71,609.12 L 666.85,607.95 L 666.45,607.39 L 665.81,606.49 L 665.52,606.07 L 665.12,605.48 L 664.82,604.97 L 664.81,604.92 L 664.49,604.83 L 664.29,604.78 L 663.59,604.70 L 663.19,604.67 L 662.09,604.60 L 661.48,604.58 L 659.95,604.53 L 659.13,604.51 L 657.15,604.48 L 656.11,604.46 L 653.67,604.45 L 652.39,604.44 L 649.46,604.44 L 647.94,604.44 L 644.51,604.46 L 642.73,604.47 L 638.78,604.50 L 636.74,604.52 L 632.24,604.57 L 629.93,604.60 L 624.87,604.66 L 622.27,604.70 L 616.64,604.78 L 613.74,604.82 L 607.51,604.92 L 604.31,604.97 L 597.46,605.09 L 593.95,605.15 L 586.46,605.28 L 574.47,605.50 L 571.38,605.55 L 564.97,605.67 L 561.74,605.72 L 555.08,605.84 L 548.38,605.95 L 534.45,606.18 L 520.42,606.40 L 491.98,606.81 L 484.98,606.91 L 471.42,607.09 L 468.08,607.13 L 461.58,607.21 L 458.36,607.25 L 452.14,607.32 L 449.07,607.36 L 443.19,607.43 L 440.29,607.46 L 434.79,607.52 L 432.10,607.54 L 427.04,607.59 L 420.00,607.65 L 415.57,607.69 L 407.03,607.77 L 402.83,607.81 L 394.91,607.90 L 391.04,607.95 L 383.90,608.05 L 380.44,608.10 L 374.26,608.20 L 372.79,608.23 L 370.05,608.28 L 368.72,608.31 L 366.28,608.36 L 365.10,608.39 L 362.99,608.45 L 361.97,608.47 L 360.21,608.53 L 359.37,608.55 L 357.97,608.60 L 357.32,608.63 L 356.32,608.68 L 355.87,608.71 L 355.27,608.76 L 354.88,608.83 L 354.86,608.85 L 354.60,609.18 L 354.43,609.39 L 353.90,610.07 L 353.60,610.46 L 352.81,611.49 L 352.38,612.04 L 351.34,613.39 L 350.79,614.10 L 349.52,615.75 L 348.86,616.61 L 347.38,618.54 L 346.61,619.54 L 344.92,621.74 L 344.05,622.87 L 342.18,625.31 L 341.22,626.56 L 339.17,629.23 L 338.12,630.59 L 335.92,633.47 L 333.67,636.39 L 328.77,642.79 L 326.26,646.06 L 320.92,653.04 L 312.52,664.00 L 309.65,667.75 L 304.06,675.02 L 301.30,678.61 L 296.03,685.46 L 293.45,688.81 L 288.61,695.06 L 286.26,698.10 L 281.99,703.59 L 280.96,704.91 L 279.04,707.38 L 278.09,708.59 L 276.35,710.82 L 275.50,711.90 L 273.96,713.86 L 273.21,714.81 L 271.88,716.49 L 271.24,717.30 L 270.14,718.68 L 269.62,719.33 L 268.76,720.38 L 268.37,720.87 L 267.77,721.59 L 267.19,722.25 L 266.65,722.81 L 265.66,723.73 L 265.17,724.15 L 264.23,724.81 L 263.29,725.39 L 261.37,725.78 L 260.87,725.82 L 259.79,725.69 L 259.23,725.60 L 258.00,725.22 L 257.36,725.00 L 255.92,724.37 L 255.17,724.03 M 512.50,572.99 L 514.39,572.84 L 518.42,572.43 L 520.46,572.21 L 524.70,571.68 L 528.95,571.11 L 537.54,569.71 L 539.64,569.34 L 543.72,568.56 L 545.72,568.17 L 549.48,567.35 L 551.31,566.94 L 554.64,566.11 L 559.00,564.88 L 560.97,564.26 L 564.86,562.69 L 566.80,561.85 L 570.63,559.84 L 572.53,558.78 L 576.30,556.32 L 581.90,552.13 L 583.43,550.89 L 586.80,548.60 L 587.60,548.09 L 589.05,547.27 L 590.77,546.47 L 591.06,546.37 L 591.94,546.20 L 592.44,546.12 L 593.76,545.98 L 594.47,545.92 L 596.23,545.82 L 597.17,545.77 L 599.39,545.71 L 600.56,545.68 L 603.25,545.64 L 604.66,545.63 L 607.85,545.63 L 609.50,545.64 L 613.19,545.67 L 619.30,545.76 L 623.75,545.83 L 632.62,545.78 L 637.02,545.73 L 645.60,545.44 L 649.83,545.26 L 657.87,544.75 L 661.80,544.47 L 669.07,543.77 L 670.82,543.58 L 674.15,543.18 L 675.78,542.97 L 678.82,542.53 L 680.31,542.30 L 683.05,541.83 L 684.38,541.58 L 686.77,541.07 L 687.93,540.81 L 689.96,540.27 L 690.92,540.00 L 692.55,539.43 L 693.31,539.14 L 694.51,538.55 L 695.78,537.65 L 696.22,537.21 L 696.77,536.38 L 696.91,535.57 L 696.88,535.54 L 696.57,535.47 L 696.37,535.42 L 695.73,535.31 L 695.37,535.26 L 694.41,535.12 L 693.89,535.05 L 692.62,534.89 L 691.94,534.81 L 690.37,534.62 L 689.54,534.52 L 687.68,534.31 L 686.71,534.20 L 684.56,533.97 L 683.45,533.85 L 681.02,533.59 L 678.53,533.33 L 672.77,532.74 L 669.76,532.43 L 663.02,531.76 L 659.54,531.42 L 651.89,530.68 L 639.50,529.51 L 637.30,529.30 L 632.86,528.88 L 630.68,528.67 L 626.62,528.27 L 624.68,528.08 L 621.47,527.76 L 620.74,527.69 L 619.52,527.56 L 618.11,527.41 L 612.73,526.82 L 619.73,519.66 L 622.13,517.21 L 626.45,512.38 L 628.53,509.97 L 632.21,505.23 L 633.98,502.87 L 637.02,498.22 L 638.47,495.91 L 640.88,491.36 L 642.01,489.10 L 643.78,484.65 L 644.59,482.43 L 645.72,478.09 L 646.21,475.92 L 646.70,471.68 L 646.71,465.43 L 646.54,463.16 L 645.78,459.16 L 645.31,457.23 L 643.89,453.75 L 643.08,452.05 L 640.88,448.87 L 636.60,444.18 L 635.72,443.35 L 634.06,441.89 L 633.25,441.19 L 631.67,439.98 L 630.09,438.82 L 626.75,437.06 L 625.87,436.66 L 623.95,435.93 L 622.95,435.58 L 620.73,434.93 L 619.57,434.61 L 616.96,433.99 L 612.50,433.05 L 609.69,432.50 L 604.80,431.42 L 602.46,430.89 L 598.42,429.80 L 596.50,429.25 L 593.19,428.10 L 591.62,427.51 L 588.93,426.22 L 587.65,425.56 L 585.47,424.08 L 584.43,423.31 L 582.64,421.59 L 581.78,420.69 L 580.27,418.65 L 578.18,415.18 L 577.30,413.53 L 575.79,410.42 L 575.08,408.89 L 573.91,405.98 L 573.36,404.55 L 572.51,401.83 L 572.12,400.48 L 571.59,397.91 L 571.36,396.64 L 571.14,394.20 L 571.07,392.99 L 571.15,390.63 L 571.24,389.47 L 571.63,387.19 L 572.55,383.80 L 573.05,382.34 L 574.29,379.94 L 574.95,378.83 L 576.56,377.10 L 577.40,376.32 L 579.41,375.24 L 582.91,374.29 L 584.06,374.13 L 586.35,374.20 L 587.50,374.30 L 589.75,374.86 L 590.88,375.21 L 593.09,376.26 L 594.19,376.85 L 596.36,378.40 L 597.43,379.23 L 599.54,381.25 L 600.58,382.32 L 602.62,384.81 L 603.63,386.11 L 605.59,389.07 L 608.44,394.01 L 608.88,394.86 L 609.62,396.32 L 609.97,397.03 L 610.55,398.31 L 611.09,399.57 L 611.81,402.15 L 611.97,402.84 L 612.24,404.40 L 612.36,405.23 L 612.59,407.16 L 612.70,408.19 L 612.92,410.63 L 613.28,415.01 L 614.36,428.84 L 623.43,429.50 L 625.92,429.68 L 631.60,429.87 L 632.96,429.90 L 635.45,429.90 L 638.50,429.83 L 644.50,429.50 L 644.79,420.12 L 644.86,417.76 L 644.67,413.21 L 644.52,410.95 L 643.88,406.58 L 643.50,404.41 L 642.39,400.21 L 641.77,398.12 L 640.19,394.06 L 639.33,392.04 L 637.26,388.10 L 636.16,386.14 L 633.60,382.29 L 632.25,380.38 L 629.18,376.60 L 624.00,370.99 L 623.09,370.08 L 621.49,368.51 L 620.72,367.76 L 619.34,366.49 L 618.01,365.27 L 615.75,363.52 L 614.64,362.72 L 612.38,361.49 L 608.40,359.79 L 607.42,359.42 L 604.98,358.65 L 603.70,358.27 L 600.92,357.54 L 599.51,357.18 L 596.72,356.58 L 592.90,355.90 L 591.09,355.64 L 588.24,355.33 L 586.90,355.22 L 584.51,355.21 L 583.32,355.24 L 580.79,355.55 L 576.17,356.39 L 573.57,356.92 L 569.04,358.09 L 566.85,358.70 L 562.94,360.10 L 561.04,360.84 L 557.48,362.59 L 552.23,365.72 L 550.49,366.88 L 547.57,369.35 L 546.20,370.63 L 543.92,373.48 L 542.84,374.96 L 541.07,378.37 L 538.84,384.29 L 538.45,385.59 L 537.89,388.18 L 537.64,389.47 L 537.36,392.05 L 537.26,393.34 L 537.27,395.90 L 537.31,397.18 L 537.59,399.71 L 537.76,400.97 L 538.31,403.45 L 538.62,404.69 L 539.43,407.11 L 540.30,409.53 L 542.79,414.13 L 544.16,416.39 L 547.60,420.61 L 549.43,422.67 L 553.76,426.41 L 556.03,428.22 L 561.19,431.39 L 569.80,435.41 L 571.98,436.24 L 575.95,437.75 L 577.87,438.48 L 581.34,439.81 L 583.02,440.45 L 586.03,441.63 L 587.49,442.20 L 590.08,443.24 L 591.32,443.74 L 593.53,444.66 L 594.59,445.11 L 596.45,445.95 L 597.34,446.35 L 598.89,447.12 L 599.63,447.49 L 600.92,448.21 L 602.14,448.91 L 603.94,450.28 L 604.75,450.97 L 605.96,452.43 L 606.52,453.19 L 607.45,454.92 L 608.85,458.01 L 609.38,459.22 L 610.20,461.65 L 610.56,462.87 L 611.07,465.34 L 611.28,466.57 L 611.47,469.07 L 611.53,470.33 L 611.41,472.89 L 611.30,474.17 L 610.87,476.79 L 610.61,478.10 L 609.85,480.80 L 609.43,482.15 L 608.36,484.93 L 606.40,489.20 L 605.89,490.21 L 604.58,492.47 L 603.89,493.63 L 602.27,496.12 L 600.59,498.66 L 596.61,504.03 L 594.57,506.69 L 590.34,511.71 L 589.29,512.91 L 587.26,515.09 L 584.38,517.97 L 583.63,518.66 L 582.37,519.83 L 581.76,520.37 L 580.74,521.27 L 580.25,521.68 L 579.41,522.33 L 579.01,522.63 L 578.31,523.06 L 577.64,523.45 L 576.48,523.72 L 574.61,523.59 L 573.51,523.38 L 570.83,523.00 L 569.41,522.82 L 566.08,522.49 L 564.34,522.33 L 560.34,522.06 L 558.26,521.93 L 553.57,521.71 L 551.14,521.60 L 545.74,521.43 L 542.94,521.35 L 536.80,521.23 L 533.64,521.18 L 526.73,521.11 L 515.50,521.05 L 512.33,521.05 L 506.37,521.06 L 503.45,521.07 L 497.96,521.12 L 495.27,521.14 L 490.23,521.22 L 487.76,521.26 L 483.15,521.38 L 480.89,521.44 L 476.66,521.59 L 474.60,521.67 L 470.74,521.87 L 468.85,521.97 L 465.34,522.21 L 463.62,522.33 L 460.42,522.62 L 458.85,522.77 L 455.94,523.10 L 454.51,523.28 L 451.86,523.66 L 449.27,524.06 L 444.74,525.02 L 442.58,525.53 L 438.75,526.74 L 433.55,528.83 L 431.82,529.64 L 428.83,531.31 L 427.41,532.16 L 425.03,533.91 L 423.91,534.80 L 422.14,536.65 L 421.33,537.59 L 420.15,539.54 L 419.63,540.54 L 419.05,542.61 L 418.83,543.66 L 418.83,545.86 L 418.91,546.98 L 419.49,549.32 L 421.02,552.99 L 421.49,553.92 L 422.67,555.69 L 423.30,556.57 L 424.79,558.25 L 425.56,559.08 L 427.33,560.66 L 428.25,561.44 L 430.29,562.91 L 431.34,563.63 L 433.64,564.98 L 434.83,565.64 L 437.38,566.86 L 438.68,567.45 L 441.47,568.54 L 445.90,570.00 L 448.00,570.62 L 452.20,571.66 L 454.31,572.14 L 458.63,572.93 L 460.82,573.28 L 465.42,573.82 L 467.76,574.05 L 472.78,574.35 L 475.36,574.46 L 480.95,574.52 L 483.83,574.51 L 490.15,574.34 L 493.41,574.22 L 500.59,573.83 L 502.44,573.71 L 506.35,573.45 L 508.33,573.31 M 477.95,502.00 L 478.04,501.85 L 478.30,501.35 L 478.44,501.07 L 478.81,500.34 L 479.20,499.55 L 480.29,497.33 L 480.88,496.12 L 482.31,493.15 L 483.07,491.57 L 484.81,487.95 L 485.71,486.07 L 487.68,481.92 L 488.70,479.79 L 490.86,475.22 L 491.96,472.90 L 494.26,468.02 L 497.80,460.50 L 499.00,457.96 L 501.67,452.26 L 503.05,449.33 L 506.01,443.02 L 507.52,439.80 L 510.68,433.08 L 512.27,429.69 L 515.52,422.77 L 518.78,415.83 L 525.15,402.26 L 526.70,398.96 L 529.65,392.69 L 533.73,384.00 L 534.96,381.38 L 537.32,376.36 L 538.48,373.89 L 540.71,369.14 L 541.81,366.80 L 543.91,362.32 L 544.95,360.12 L 546.93,355.90 L 547.90,353.82 L 549.76,349.86 L 550.68,347.90 L 552.42,344.18 L 554.14,340.52 L 557.24,333.89 L 558.74,330.69 L 561.43,324.94 L 562.72,322.17 L 565.02,317.23 L 566.13,314.86 L 568.07,310.67 L 569.00,308.66 L 570.62,305.16 L 571.39,303.49 L 572.70,300.61 L 573.32,299.25 L 574.36,296.93 L 574.85,295.84 L 575.66,294.02 L 576.03,293.17 L 576.61,291.80 L 576.88,291.16 L 577.29,290.15 L 577.47,289.69 L 577.71,289.00 L 578.00,287.80 L 578.00,287.39 L 577.63,286.83 L 577.48,286.70 L 577.00,286.50 L 576.72,286.41 L 575.93,286.26 L 575.48,286.20 L 574.30,286.10 L 573.65,286.05 L 572.01,285.98 L 571.13,285.95 L 568.95,285.91 L 565.00,285.85 L 563.21,285.83 L 559.87,285.78 L 558.26,285.76 L 555.49,285.71 L 554.22,285.69 L 552.35,285.65 L 551.95,285.64 L 551.38,285.62 L 550.90,285.60 L 550.70,285.58 L 550.28,285.75 L 550.06,285.89 L 549.46,286.61 L 549.30,286.83 L 548.90,287.45 L 548.69,287.79 L 548.20,288.65 L 547.94,289.11 L 547.32,290.26 L 547.00,290.87 L 546.25,292.34 L 545.86,293.12 L 544.95,294.95 L 544.47,295.92 L 543.38,298.15 L 542.81,299.32 L 541.53,302.00 L 540.86,303.40 L 539.35,306.55 L 538.57,308.19 L 536.83,311.87 L 535.93,313.78 L 533.93,318.01 L 532.90,320.20 L 530.62,325.04 L 526.87,333.00 L 524.25,338.57 L 518.86,350.03 L 517.52,352.87 L 514.90,358.43 L 513.61,361.18 L 511.12,366.45 L 509.91,369.03 L 507.63,373.85 L 506.53,376.19 L 504.55,380.40 L 503.60,382.41 L 501.97,385.86 L 501.59,386.67 L 500.90,388.11 L 500.01,390.00 L 498.62,392.93 L 495.95,398.59 L 494.63,401.38 L 492.09,406.74 L 490.84,409.38 L 488.45,414.44 L 487.27,416.94 L 485.03,421.69 L 483.93,424.03 L 481.83,428.47 L 480.80,430.65 L 478.86,434.77 L 477.91,436.79 L 476.13,440.58 L 475.26,442.43 L 473.64,445.88 L 472.85,447.56 L 471.40,450.67 L 470.69,452.18 L 469.41,454.93 L 468.79,456.26 L 467.67,458.65 L 467.14,459.80 L 466.20,461.82 L 465.76,462.78 L 465.00,464.42 L 464.65,465.20 L 464.07,466.45 L 463.81,467.04 L 463.42,467.90 L 463.06,468.75 L 462.70,469.64 L 461.96,471.04 L 461.78,471.33 L 461.48,471.73 L 461.13,471.97 L 461.04,471.97 L 460.63,471.36 L 460.40,470.96 L 459.75,469.69 L 459.40,468.99 L 458.60,467.23 L 457.32,464.22 L 456.64,462.57 L 455.13,458.94 L 454.36,457.08 L 452.75,453.20 L 451.12,449.29 L 447.90,441.58 L 447.13,439.74 L 445.69,436.33 L 445.01,434.69 L 443.81,431.86 L 443.25,430.54 L 442.37,428.48 L 442.17,428.03 L 441.86,427.30 L 441.51,426.50 L 441.42,426.29 L 441.04,425.43 L 440.82,424.93 L 440.22,423.52 L 439.89,422.76 L 439.09,420.88 L 438.67,419.90 L 437.71,417.62 L 437.21,416.45 L 436.11,413.85 L 435.54,412.52 L 434.33,409.67 L 430.46,400.50 L 428.99,397.02 L 426.28,390.58 L 424.96,387.45 L 422.52,381.69 L 421.34,378.89 L 419.17,373.76 L 418.12,371.28 L 416.20,366.75 L 415.28,364.56 L 413.59,360.59 L 412.78,358.68 L 411.31,355.24 L 410.61,353.58 L 409.35,350.62 L 408.74,349.21 L 407.66,346.70 L 407.15,345.50 L 406.24,343.42 L 405.81,342.42 L 405.06,340.71 L 404.70,339.90 L 404.09,338.53 L 403.80,337.88 L 403.31,336.81 L 403.08,336.31 L 402.69,335.51 L 402.51,335.14 L 402.22,334.57 L 401.61,333.53 L 401.53,333.42 L 401.08,333.20 L 400.81,333.09 L 400.01,332.87 L 399.58,332.76 L 398.49,332.54 L 397.92,332.43 L 396.60,332.22 L 395.22,332.01 L 391.96,331.62 L 390.28,331.44 L 386.70,331.13 L 384.91,330.98 L 381.43,330.78 L 379.74,330.70 L 376.75,330.63 L 376.05,330.63 L 374.82,330.65 L 374.23,330.67 L 373.26,330.73 L 372.81,330.77 L 372.14,330.89 L 371.55,331.13 L 371.42,331.24 L 371.40,331.92 L 371.44,332.34 L 371.78,333.71 L 372.00,334.49 L 372.75,336.68 L 372.97,337.28 L 373.48,338.66 L 373.76,339.38 L 374.39,341.00 L 374.72,341.85 L 375.48,343.73 L 375.88,344.71 L 376.77,346.87 L 377.23,347.98 L 378.26,350.43 L 378.79,351.70 L 379.96,354.45 L 380.56,355.87 L 381.88,358.94 L 382.56,360.52 L 384.03,363.94 L 384.79,365.68 L 386.42,369.45 L 389.06,375.50 L 390.32,378.39 L 392.83,384.17 L 394.07,387.01 L 396.34,392.24 L 396.88,393.49 L 397.87,395.77 L 398.35,396.88 L 399.18,398.82 L 399.58,399.74 L 400.24,401.27 L 400.98,403.00 L 401.17,403.45 L 401.71,404.71 L 402.00,405.40 L 402.74,407.10 L 403.12,408.00 L 404.01,410.06 L 404.47,411.12 L 405.49,413.47 L 406.53,415.87 L 408.85,421.22 L 412.46,429.50 L 413.06,430.88 L 414.36,433.86 L 415.03,435.39 L 416.43,438.61 L 417.84,441.86 L 420.78,448.62 L 422.23,451.97 L 424.99,458.32 L 425.65,459.84 L 426.87,462.68 L 428.52,466.50 L 429.39,468.50 L 430.97,472.15 L 431.73,473.93 L 433.14,477.17 L 433.82,478.74 L 435.05,481.58 L 435.65,482.96 L 436.73,485.43 L 437.25,486.63 L 438.19,488.76 L 438.65,489.79 L 439.45,491.61 L 439.84,492.48 L 440.54,494.02 L 440.87,494.75 L 441.45,496.01 L 442.01,497.22 L 442.87,498.95 L 443.26,499.72 L 443.85,500.74 L 444.12,501.18 L 444.55,501.69 L 445.10,502.12 L 445.24,502.19 L 445.74,502.37 L 446.02,502.46 L 446.76,502.66 L 447.56,502.87 L 449.75,503.35 L 450.92,503.60 L 453.63,504.12 L 455.03,504.38 L 458.00,504.89 L 459.50,505.14 L 462.44,505.60 L 463.89,505.82 L 466.53,506.18 L 467.79,506.34 L 469.85,506.55 L 471.99,506.65 L 472.75,506.62 L 473.90,506.42 L 474.43,506.28 L 475.30,505.75 L 475.72,505.42 L 476.54,504.36 L 476.96,503.75 M 464.50,557.00 L 463.54,556.74 L 461.73,556.26 L 460.86,556.04 L 459.36,555.65 L 458.66,555.48 L 457.64,555.23 L 456.83,555.06 L 456.73,555.05 L 456.32,554.83 L 456.09,554.69 L 455.45,554.26 L 453.08,552.41 L 452.57,551.99 L 451.74,551.03 L 451.36,550.54 L 450.76,549.46 L 450.22,548.37 L 449.85,546.03 L 449.78,544.86 L 450.37,542.62 L 450.58,542.08 L 451.18,541.08 L 452.36,539.75 L 452.70,539.44 L 453.59,538.86 L 454.07,538.57 L 455.22,538.01 L 456.42,537.46 L 459.49,536.48 L 461.11,536.01 L 464.85,535.20 L 466.78,534.82 L 470.98,534.20 L 473.12,533.92 L 477.58,533.54 L 479.82,533.38 L 484.33,533.25 L 486.56,533.22 L 490.90,533.37 L 497.00,533.94 L 499.35,534.27 L 503.41,534.83 L 505.35,535.10 L 508.74,535.56 L 510.37,535.78 L 513.28,536.14 L 514.70,536.32 L 517.31,536.61 L 519.90,536.90 L 524.98,537.35 L 526.31,537.47 L 529.18,537.68 L 534.00,538.03 L 536.02,538.17 L 539.73,538.47 L 541.53,538.62 L 544.77,538.94 L 546.33,539.10 L 549.08,539.43 L 550.39,539.60 L 552.62,539.95 L 553.67,540.12 L 555.36,540.48 L 556.14,540.66 L 557.27,541.02 L 557.76,541.20 L 558.31,541.56 L 558.44,542.10 L 558.32,542.29 L 557.65,542.83 L 557.26,543.12 L 556.11,543.82 L 555.48,544.19 L 553.92,545.01 L 553.10,545.43 L 551.21,546.34 L 549.27,547.26 L 544.75,549.18 L 537.68,551.88 L 536.49,552.30 L 533.88,553.10 L 532.54,553.49 L 529.69,554.22 L 526.79,554.93 L 520.41,556.14 L 517.15,556.70 L 510.32,557.61 L 506.87,558.02 L 499.90,558.59 L 496.42,558.83 L 489.62,559.05 L 486.28,559.12 L 479.98,558.97 L 476.92,558.84 L 471.45,558.29 L 470.14,558.13 L 467.74,557.73 L 466.58,557.51 Z" fill="rgba(254,254,254,1)"/>
</g>
</svg>