<svg xmlns="http://www.w3.org/2000/svg" width="1024" height="1024" viewBox="0 0 1024 1024">
<g>
<path d="M 414.01,246.71 L 420.14,246.71 L 423.26,246.71 L 429.74,246.72 L 433.03,246.73 L 439.87,246.74 L 443.34,246.75 L 450.53,246.77 L 454.17,246.78 L 461.72,246.81 L 465.54,246.82 L 473.45,246.86 L 477.45,246.87 L 485.72,246.91 L 489.90,246.93 L 498.53,246.97 L 502.89,246.99 L 511.88,247.04 L 516.42,247.07 L 525.77,247.12 L 530.49,247.15 L 540.21,247.20 L 545.12,247.23 L 555.20,247.30 L 560.29,247.33 L 570.75,247.40 L 576.02,247.44 L 586.84,247.51 L 603.50,247.63 L 606.02,247.65 L 610.85,247.68 L 613.22,247.70 L 617.75,247.73 L 619.98,247.75 L 624.22,247.78 L 626.31,247.80 L 630.28,247.83 L 634.18,247.86 L 641.20,247.92 L 644.59,247.95 L 650.63,248.01 L 653.54,248.04 L 658.70,248.10 L 661.17,248.13 L 665.51,248.20 L 667.58,248.23 L 671.18,248.30 L 672.90,248.34 L 675.84,248.42 L 677.24,248.46 L 679.59,248.56 L 680.71,248.61 L 682.57,248.71 L 683.44,248.77 L 684.87,248.89 L 685.54,248.96 L 686.63,249.10 L 687.64,249.24 L 688.96,249.60 L 690.50,250.26 L 690.84,250.43 L 691.86,250.99 L 692.42,251.31 L 693.87,252.15 L 694.64,252.60 L 696.49,253.69 L 697.46,254.27 L 699.67,255.61 L 700.82,256.30 L 703.37,257.85 L 704.69,258.65 L 707.54,260.41 L 709.01,261.31 L 712.15,263.24 L 713.75,264.23 L 717.13,266.33 L 720.57,268.46 L 728.06,273.14 L 731.88,275.53 L 739.96,280.61 L 744.06,283.19 L 752.49,288.53 L 765.27,296.66 L 766.20,297.25 L 767.97,298.52 L 768.83,299.15 L 770.33,300.38 L 771.04,300.97 L 772.10,302.02 L 773.01,303.24 L 773.08,303.40 L 773.29,304.01 L 773.41,304.37 L 773.72,305.34 L 773.88,305.87 L 774.27,307.16 L 774.47,307.84 L 774.92,309.39 L 775.39,311.00 L 776.45,314.80 L 778.13,321.00 L 779.16,324.83 L 781.08,332.02 L 782.03,335.54 L 783.82,342.19 L 784.71,345.45 L 786.39,351.64 L 787.22,354.68 L 788.81,360.49 L 790.38,366.22 L 793.37,376.92 L 797.78,392.50 L 798.47,394.89 L 799.75,399.40 L 800.39,401.63 L 801.63,406.00 L 802.25,408.19 L 803.51,412.67 L 804.15,414.94 L 805.50,419.76 L 806.20,422.24 L 807.70,427.64 L 808.48,430.43 L 810.21,436.65 L 810.66,438.26 L 811.61,441.69 L 812.09,443.44 L 813.12,447.15 L 813.65,449.04 L 814.76,453.07 L 816.54,459.50 L 816.77,460.32 L 817.35,462.42 L 817.66,463.53 L 818.38,466.13 L 818.76,467.48 L 819.59,470.48 L 820.02,472.02 L 820.94,475.32 L 821.88,478.67 L 823.89,485.85 L 826.87,496.50 L 827.35,498.22 L 828.40,501.98 L 828.94,503.91 L 830.08,507.98 L 831.24,512.11 L 833.65,520.77 L 834.85,525.07 L 837.14,533.29 L 837.69,535.27 L 838.71,538.97 L 840.11,544.00 L 840.96,547.09 L 842.79,553.68 L 843.71,556.98 L 845.51,563.42 L 845.94,564.98 L 846.77,567.95 L 847.18,569.40 L 847.93,572.07 L 848.29,573.35 L 848.93,575.63 L 849.74,578.50 L 850.36,580.70 L 851.38,584.47 L 851.85,586.26 L 852.57,589.38 L 852.89,590.89 L 853.31,593.60 L 853.48,594.92 L 853.61,597.44 L 853.64,598.70 L 853.48,601.26 L 853.37,602.57 L 852.93,605.40 L 852.68,606.87 L 851.96,610.20 L 850.59,616.00 L 849.53,620.30 L 847.40,628.84 L 846.35,633.07 L 844.28,641.29 L 843.25,645.34 L 841.30,652.99 L 840.34,656.72 L 838.58,663.54 L 838.15,665.18 L 837.34,668.27 L 836.95,669.77 L 836.21,672.56 L 835.85,673.92 L 835.18,676.38 L 834.86,677.57 L 834.29,679.67 L 834.01,680.67 L 833.53,682.39 L 833.30,683.19 L 832.92,684.48 L 832.75,685.07 L 832.48,685.90 L 832.21,686.61 L 831.79,687.39 L 830.66,688.78 L 830.33,689.13 L 829.51,689.85 L 829.06,690.22 L 827.95,691.01 L 827.35,691.42 L 825.88,692.33 L 825.09,692.81 L 823.19,693.89 L 822.18,694.46 L 819.77,695.76 L 815.50,698.02 L 813.85,698.89 L 810.17,700.84 L 808.30,701.83 L 804.53,703.85 L 802.67,704.84 L 799.25,706.68 L 798.43,707.12 L 796.95,707.92 L 795.00,708.99 L 792.73,710.23 L 788.45,712.53 L 786.36,713.65 L 782.45,715.69 L 780.56,716.67 L 777.07,718.43 L 775.38,719.27 L 772.35,720.73 L 770.89,721.42 L 768.35,722.56 L 767.14,723.09 L 765.12,723.90 L 764.17,724.26 L 762.71,724.72 L 761.18,725.00 L 760.72,725.00 L 759.73,724.76 L 759.23,724.59 L 758.09,723.94 L 757.50,723.56 L 756.14,722.42 L 755.42,721.78 L 753.74,720.08 L 752.86,719.14 L 750.80,716.78 L 749.71,715.51 L 747.18,712.41 L 745.85,710.76 L 742.77,706.84 L 741.96,705.80 L 740.23,703.56 L 737.45,699.93 L 736.69,698.94 L 734.76,696.42 L 733.74,695.08 L 731.35,691.96 L 730.11,690.34 L 727.35,686.74 L 725.93,684.89 L 722.90,680.93 L 719.82,676.90 L 713.21,668.29 L 703.41,655.50 L 700.25,651.38 L 693.86,643.04 L 692.29,640.99 L 689.23,637.00 L 687.72,635.03 L 684.86,631.30 L 683.46,629.47 L 680.89,626.11 L 679.64,624.48 L 677.43,621.59 L 676.38,620.21 L 674.61,617.91 L 672.57,615.24 L 671.27,613.54 L 669.00,610.73 L 667.91,609.42 L 666.07,607.40 L 665.20,606.48 L 663.79,605.26 L 662.19,604.33 L 662.01,604.29 L 661.00,604.22 L 660.40,604.19 L 658.59,604.14 L 657.60,604.12 L 655.10,604.09 L 653.77,604.08 L 650.68,604.08 L 649.06,604.08 L 645.47,604.10 L 643.61,604.12 L 639.61,604.16 L 626.57,604.38 L 621.08,604.49 L 609.77,604.71 L 604.07,604.83 L 592.43,605.05 L 580.73,605.27 L 556.83,605.71 L 544.87,605.92 L 521.17,606.32 L 515.30,606.41 L 503.76,606.60 L 498.04,606.69 L 486.87,606.86 L 481.35,606.95 L 470.67,607.11 L 465.41,607.18 L 455.34,607.33 L 450.40,607.39 L 441.06,607.52 L 436.49,607.58 L 428.00,607.68 L 423.86,607.73 L 416.33,607.81 L 414.51,607.83 L 411.08,607.86 L 409.40,607.88 L 406.24,607.90 L 404.70,607.92 L 401.85,607.94 L 400.46,607.95 L 397.91,607.96 L 396.67,607.97 L 394.45,607.97 L 391.50,607.98 L 387.10,607.97 L 378.90,607.97 L 376.94,607.97 L 373.27,607.97 L 371.49,607.96 L 368.26,607.96 L 366.71,607.96 L 364.02,607.96 L 362.75,607.96 L 360.69,607.97 L 359.75,607.97 L 358.41,607.97 L 357.32,607.97 L 357.12,607.98 L 356.62,608.18 L 356.34,608.31 L 355.68,608.80 L 355.33,609.08 L 354.48,609.88 L 354.03,610.32 L 352.97,611.47 L 352.42,612.09 L 351.13,613.61 L 350.45,614.42 L 348.89,616.34 L 348.08,617.35 L 346.24,619.70 L 343.12,623.75 L 341.56,625.79 L 338.63,629.64 L 337.19,631.52 L 334.50,635.05 L 333.18,636.78 L 330.71,640.01 L 329.50,641.59 L 327.24,644.55 L 326.14,645.99 L 324.08,648.69 L 323.07,650.00 L 321.20,652.45 L 320.29,653.65 L 318.58,655.88 L 317.75,656.96 L 316.21,658.98 L 314.70,660.95 L 312.11,664.34 L 310.87,665.96 L 308.74,668.74 L 307.71,670.07 L 305.93,672.39 L 303.53,675.50 L 303.11,676.05 L 302.03,677.45 L 301.45,678.20 L 300.10,679.95 L 299.40,680.86 L 297.85,682.88 L 297.05,683.92 L 295.33,686.14 L 293.59,688.41 L 289.85,693.27 L 284.28,700.50 L 283.26,701.83 L 281.37,704.28 L 280.44,705.48 L 278.74,707.66 L 277.91,708.73 L 276.38,710.66 L 275.64,711.60 L 274.28,713.31 L 272.95,714.95 L 270.73,717.60 L 269.68,718.83 L 267.93,720.73 L 267.10,721.60 L 265.72,722.86 L 265.06,723.42 L 263.92,724.16 L 263.37,724.48 L 262.37,724.82 L 260.91,725.00 L 260.68,725.00 L 260.00,724.86 L 259.62,724.77 L 258.65,724.46 L 258.13,724.29 L 256.90,723.82 L 256.25,723.57 L 254.79,722.95 L 253.28,722.30 L 249.69,720.62 L 247.82,719.73 L 243.70,717.63 L 241.75,716.62 L 237.76,714.53 L 235.78,713.50 L 232.06,711.55 L 230.27,710.61 L 227.26,709.01 L 226.57,708.65 L 225.39,708.02 L 224.00,707.27 L 223.62,707.06 L 222.65,706.54 L 222.13,706.27 L 220.92,705.62 L 219.65,704.95 L 216.59,703.33 L 206.50,698.07 L 204.85,697.21 L 201.64,695.44 L 200.07,694.55 L 197.27,692.87 L 195.95,692.06 L 193.87,690.66 L 193.41,690.34 L 192.69,689.78 L 191.92,689.11 L 191.61,688.77 L 190.94,687.68 L 190.60,687.06 L 189.86,685.39 L 189.48,684.48 L 188.68,682.25 L 188.27,681.06 L 187.41,678.26 L 186.97,676.79 L 186.04,673.43 L 185.57,671.69 L 184.59,667.78 L 184.09,665.75 L 183.04,661.30 L 181.41,654.00 L 181.22,653.11 L 180.63,650.61 L 180.31,649.27 L 179.54,646.18 L 177.01,636.50 L 175.85,632.26 L 173.65,623.68 L 173.12,621.57 L 172.12,617.51 L 171.64,615.51 L 170.77,611.78 L 170.35,609.97 L 169.63,606.70 L 169.29,605.14 L 168.76,602.49 L 168.52,601.25 L 168.20,599.35 L 168.00,597.49 L 168.00,597.30 L 168.13,596.46 L 168.22,595.96 L 168.52,594.56 L 168.69,593.79 L 169.13,591.91 L 169.37,590.91 L 169.94,588.61 L 170.24,587.41 L 170.91,584.77 L 171.27,583.41 L 172.03,580.50 L 174.60,571.12 L 175.50,567.87 L 177.50,560.66 L 178.52,557.00 L 180.55,549.64 L 181.05,547.83 L 182.01,544.33 L 182.48,542.60 L 183.36,539.37 L 183.79,537.79 L 184.58,534.92 L 185.59,531.16 L 186.20,528.91 L 187.34,524.75 L 187.89,522.77 L 188.83,519.41 L 189.05,518.63 L 189.44,517.30 L 189.62,516.67 L 189.92,515.67 L 190.06,515.21 L 190.26,514.58 L 190.44,514.10 L 190.47,514.05 L 190.63,513.56 L 190.73,513.26 L 191.01,512.29 L 191.17,511.76 L 191.56,510.37 L 191.77,509.64 L 192.26,507.89 L 192.51,506.98 L 193.07,504.92 L 193.36,503.86 L 193.99,501.55 L 196.02,493.95 L 196.73,491.27 L 198.36,485.21 L 199.19,482.13 L 200.92,475.81 L 201.78,472.68 L 203.40,466.86 L 203.79,465.47 L 204.51,462.91 L 205.48,459.50 L 205.78,458.47 L 206.47,456.03 L 206.84,454.75 L 207.65,451.90 L 208.06,450.43 L 208.95,447.27 L 209.40,445.66 L 210.35,442.30 L 211.30,438.90 L 213.24,431.92 L 215.98,422.00 L 216.41,420.45 L 217.36,417.02 L 217.84,415.26 L 218.89,411.49 L 219.95,407.66 L 222.22,399.50 L 223.35,395.42 L 225.56,387.51 L 226.10,385.60 L 227.11,381.98 L 228.51,377.00 L 228.95,375.45 L 229.92,371.99 L 230.42,370.21 L 231.50,366.37 L 232.59,362.46 L 234.93,354.06 L 236.10,349.85 L 238.39,341.59 L 238.94,339.59 L 239.99,335.78 L 241.45,330.50 L 242.35,327.20 L 244.09,320.97 L 244.51,319.47 L 245.31,316.65 L 245.70,315.27 L 246.42,312.76 L 246.76,311.55 L 247.38,309.43 L 247.68,308.42 L 248.17,306.76 L 248.41,305.99 L 248.76,304.85 L 249.11,303.82 L 249.24,303.49 L 249.72,302.76 L 250.00,302.38 L 250.81,301.52 L 251.26,301.07 L 252.44,300.05 L 253.08,299.51 L 254.70,298.29 L 255.57,297.66 L 257.66,296.20 L 258.77,295.44 L 261.40,293.71 L 262.78,292.80 L 265.98,290.76 L 271.50,287.31 L 272.05,286.96 L 273.36,286.15 L 274.05,285.72 L 275.59,284.76 L 277.18,283.77 L 280.82,281.50 L 282.68,280.35 L 286.52,277.95 L 292.00,274.53 L 294.22,273.14 L 298.30,270.59 L 300.29,269.35 L 303.94,267.07 L 305.71,265.97 L 308.95,263.95 L 310.51,262.97 L 313.36,261.19 L 314.74,260.33 L 317.23,258.78 L 318.43,258.03 L 320.59,256.68 L 321.63,256.04 L 323.48,254.89 L 324.37,254.33 L 325.94,253.36 L 326.69,252.89 L 328.01,252.08 L 328.64,251.69 L 329.74,251.01 L 330.78,250.37 L 332.30,249.45 L 332.98,249.03 L 333.95,248.47 L 335.00,247.87 L 335.08,247.82 L 335.49,247.73 L 335.74,247.69 L 336.47,247.61 L 336.88,247.57 L 337.94,247.49 L 338.51,247.45 L 339.90,247.38 L 340.63,247.35 L 342.35,247.28 L 343.25,247.25 L 345.30,247.19 L 346.36,247.16 L 348.74,247.10 L 349.97,247.08 L 352.68,247.03 L 354.08,247.00 L 357.13,246.96 L 358.70,246.94 L 362.08,246.90 L 363.82,246.88 L 367.54,246.85 L 369.44,246.83 L 373.51,246.80 L 375.58,246.79 L 379.99,246.77 L 382.23,246.76 L 386.98,246.74 L 389.40,246.73 L 394.49,246.72 L 397.08,246.71 L 402.52,246.71 L 405.28,246.71 L 411.07,246.70 M 582.77,355.55 L 578.20,355.97 L 575.93,356.37 L 571.39,357.29 L 569.18,357.92 L 564.78,359.31 L 562.67,360.17 L 558.53,361.99 L 556.60,363.05 L 552.82,365.28 L 551.11,366.53 L 547.82,369.12 L 546.40,370.55 L 542.55,375.35 L 540.54,378.94 L 539.82,380.96 L 538.54,385.14 L 538.17,387.48 L 537.61,392.32 L 537.58,395.00 L 537.57,397.64 L 537.60,399.15 L 537.63,399.81 L 537.83,402.22 L 538.06,403.26 L 538.62,405.31 L 539.10,406.46 L 539.61,407.63 L 539.93,408.30 L 540.60,409.68 L 541.00,410.48 L 544.76,416.62 L 547.85,420.62 L 549.58,422.46 L 553.14,426.00 L 554.99,427.48 L 556.84,428.91 L 557.76,429.53 L 559.60,430.70 L 560.50,431.18 L 561.79,431.82 L 562.89,432.33 L 563.55,432.62 L 566.42,433.87 L 568.14,434.58 L 571.74,436.05 L 573.67,436.81 L 577.57,438.32 L 579.50,439.03 L 584.97,441.09 L 588.16,442.32 L 589.54,442.87 L 592.17,443.93 L 593.30,444.41 L 595.46,445.34 L 596.38,445.77 L 598.12,446.60 L 598.86,446.99 L 600.26,447.76 L 600.86,448.13 L 603.01,449.60 L 603.85,450.36 L 605.85,452.58 L 607.06,454.32 L 607.59,455.30 L 608.61,457.32 L 609.04,458.42 L 609.85,460.65 L 610.17,461.83 L 610.75,464.21 L 610.95,465.43 L 611.29,467.88 L 611.36,469.11 L 611.44,471.57 L 611.37,472.78 L 611.16,475.17 L 610.94,476.32 L 609.68,480.95 L 608.42,484.31 L 607.61,486.08 L 605.87,489.69 L 604.85,491.55 L 602.69,495.29 L 601.48,497.18 L 598.99,500.95 L 597.63,502.81 L 594.87,506.49 L 593.40,508.27 L 590.43,511.76 L 588.90,513.40 L 585.80,516.59 L 584.22,518.03 L 582.23,519.84 L 581.09,520.83 L 580.60,521.24 L 579.67,521.99 L 579.27,522.29 L 578.50,522.82 L 578.16,523.02 L 576.90,523.61 L 576.33,523.69 L 575.18,523.71 L 574.52,523.58 L 570.71,522.98 L 567.75,522.62 L 566.05,522.46 L 562.49,522.16 L 560.48,522.03 L 556.28,521.79 L 553.93,521.68 L 549.07,521.49 L 546.37,521.41 L 540.79,521.27 L 537.73,521.22 L 531.41,521.13 L 527.96,521.10 L 520.86,521.06 L 517.00,521.06 L 507.62,521.07 L 501.74,521.10 L 498.98,521.13 L 493.59,521.19 L 491.06,521.24 L 486.12,521.33 L 483.80,521.39 L 479.29,521.53 L 477.18,521.61 L 473.05,521.78 L 471.13,521.89 L 467.38,522.10 L 465.63,522.23 L 462.21,522.49 L 460.62,522.63 L 457.52,522.94 L 456.08,523.12 L 453.26,523.47 L 451.95,523.67 L 446.95,524.52 L 444.77,525.03 L 440.60,526.11 L 438.75,526.74 L 435.18,528.07 L 433.55,528.83 L 429.36,531.01 L 426.91,532.52 L 425.86,533.30 L 423.88,534.89 L 423.06,535.71 L 421.54,537.36 L 420.96,538.22 L 419.91,539.95 L 419.55,540.84 L 418.97,542.65 L 418.85,543.58 L 418.72,545.46 L 418.83,546.43 L 419.18,548.38 L 419.52,549.38 L 421.68,553.96 L 423.63,556.80 L 424.85,558.12 L 427.46,560.67 L 429.01,561.84 L 432.27,564.09 L 434.14,565.11 L 438.03,567.06 L 440.21,567.92 L 444.73,569.57 L 447.21,570.27 L 452.33,571.59 L 455.12,572.13 L 460.83,573.13 L 463.90,573.50 L 467.28,573.90 L 468.73,574.07 L 471.52,574.36 L 472.79,574.47 L 477.64,574.79 L 480.26,574.79 L 482.96,574.76 L 484.50,574.71 L 487.73,574.57 L 489.63,574.46 L 493.66,574.21 L 496.07,574.05 L 498.56,573.88 L 499.91,573.78 L 502.71,573.58 L 504.24,573.47 L 520.09,572.01 L 530.22,570.76 L 534.91,570.02 L 539.53,569.26 L 541.72,568.86 L 546.01,568.03 L 548.01,567.60 L 551.92,566.72 L 553.71,566.27 L 557.18,565.34 L 558.73,564.86 L 564.77,562.61 L 568.88,560.69 L 570.91,559.57 L 574.94,557.21 L 576.87,555.90 L 580.64,553.20 L 582.37,551.75 L 584.96,549.67 L 586.54,548.54 L 587.34,548.09 L 588.97,547.27 L 589.90,546.96 L 591.86,546.40 L 593.05,546.21 L 595.58,545.88 L 597.16,545.78 L 598.80,545.69 L 599.71,545.66 L 601.60,545.61 L 602.65,545.60 L 604.82,545.59 L 606.02,545.59 L 608.52,545.60 L 609.89,545.62 L 612.74,545.65 L 614.30,545.67 L 617.53,545.73 L 619.30,545.76 L 626.49,545.86 L 630.79,545.89 L 632.75,545.89 L 636.54,545.87 L 638.31,545.84 L 641.75,545.77 L 643.40,545.71 L 649.85,545.41 L 653.18,545.15 L 656.55,544.87 L 658.34,544.70 L 662.00,544.34 L 664.00,544.13 L 671.99,543.23 L 677.09,542.58 L 679.34,542.27 L 681.53,541.96 L 682.52,541.81 L 684.41,541.51 L 685.23,541.38 L 686.76,541.11 L 687.37,540.99 L 688.47,540.76 L 688.84,540.66 L 692.36,539.46 L 694.40,538.52 L 695.16,538.03 L 696.50,537.07 L 696.81,536.64 L 697.05,536.22 L 697.07,536.04 L 697.02,535.69 L 696.88,535.55 L 696.25,535.40 L 695.33,535.25 L 694.64,535.16 L 693.12,534.95 L 692.16,534.84 L 690.11,534.59 L 688.91,534.45 L 686.40,534.17 L 685.01,534.02 L 682.12,533.70 L 680.55,533.54 L 674.01,532.86 L 670.44,532.51 L 659.20,531.41 L 651.47,530.65 L 647.79,530.29 L 644.14,529.93 L 642.42,529.75 L 639.06,529.42 L 637.52,529.27 L 634.54,528.97 L 633.24,528.84 L 630.76,528.59 L 629.74,528.49 L 623.91,527.91 L 620.41,527.57 L 618.96,527.44 L 617.57,527.31 L 616.97,527.26 L 615.85,527.16 L 615.40,527.12 L 614.59,527.05 L 614.31,527.03 L 613.85,527.00 L 613.77,527.00 L 613.67,526.85 L 613.75,526.61 L 613.85,526.43 L 614.45,525.53 L 614.99,524.87 L 616.19,523.43 L 616.97,522.57 L 618.65,520.75 L 619.63,519.75 L 627.34,511.30 L 631.84,505.79 L 633.77,503.10 L 637.42,497.74 L 638.92,495.12 L 641.71,489.91 L 642.78,487.36 L 644.72,482.30 L 645.37,479.82 L 646.46,474.89 L 646.69,472.48 L 646.93,467.69 L 646.73,465.35 L 646.13,460.69 L 645.51,458.40 L 644.40,454.89 L 643.57,452.91 L 643.04,451.99 L 641.90,450.19 L 641.15,449.23 L 639.51,447.27 L 638.44,446.11 L 633.30,441.26 L 629.76,438.67 L 627.87,437.65 L 623.96,435.80 L 621.79,435.10 L 617.27,433.84 L 614.70,433.40 L 608.09,432.15 L 604.07,431.28 L 602.25,430.82 L 598.72,429.89 L 597.13,429.41 L 594.08,428.42 L 592.72,427.90 L 590.12,426.84 L 588.99,426.28 L 586.82,425.14 L 585.90,424.54 L 584.15,423.32 L 583.43,422.67 L 582.09,421.36 L 581.56,420.66 L 580.32,418.81 L 579.31,417.11 L 578.75,416.11 L 576.43,411.80 L 575.41,409.65 L 573.67,405.52 L 572.75,402.82 L 572.40,401.49 L 571.77,398.87 L 571.56,397.59 L 571.22,395.08 L 571.16,393.87 L 571.09,391.48 L 571.16,390.34 L 571.35,388.11 L 571.54,387.07 L 571.98,385.02 L 572.29,384.07 L 572.97,382.22 L 573.40,381.39 L 574.30,379.78 L 574.83,379.07 L 575.94,377.71 L 576.57,377.14 L 577.88,376.06 L 578.60,375.64 L 580.10,374.87 L 580.91,374.60 L 582.58,374.16 L 583.48,374.08 L 585.30,373.99 L 586.27,374.09 L 588.25,374.39 L 589.29,374.69 L 591.40,375.39 L 592.50,375.90 L 596.12,378.06 L 598.45,379.95 L 599.59,381.14 L 601.86,383.68 L 602.99,385.22 L 605.26,388.48 L 606.41,390.39 L 609.41,396.12 L 610.91,399.93 L 611.46,402.01 L 611.98,404.13 L 612.20,405.27 L 612.61,407.61 L 612.78,408.89 L 613.09,411.52 L 613.23,412.97 L 613.47,415.96 L 613.58,417.61 L 614.27,428.73 L 621.78,429.36 L 625.33,429.61 L 628.03,429.76 L 629.43,429.81 L 632.25,429.92 L 633.58,429.95 L 636.18,430.00 L 645.24,430.00 L 644.78,417.75 L 644.25,410.67 L 643.65,406.22 L 643.21,404.11 L 642.23,399.96 L 641.60,397.98 L 640.23,394.07 L 639.38,392.18 L 637.58,388.45 L 636.52,386.62 L 634.26,383.00 L 632.96,381.20 L 630.22,377.62 L 628.66,375.83 L 625.41,372.23 L 623.59,370.40 L 620.42,367.34 L 618.44,365.58 L 617.49,364.82 L 615.60,363.38 L 614.65,362.76 L 612.73,361.57 L 611.73,361.06 L 609.68,360.09 L 608.56,359.66 L 606.27,358.83 L 605.00,358.46 L 602.35,357.73 L 600.86,357.38 L 597.76,356.69 L 596.00,356.34 L 589.51,355.53 L 585.04,355.41 M 490.99,533.29 L 495.79,533.68 L 498.00,534.03 L 500.71,534.42 L 503.15,534.73 L 504.64,534.91 L 507.80,535.27 L 509.61,535.48 L 513.38,535.89 L 515.45,536.11 L 519.71,536.56 L 521.98,536.79 L 526.62,537.26 L 529.04,537.50 L 538.94,538.46 L 544.01,538.92 L 549.36,539.45 L 552.25,539.81 L 553.36,539.99 L 555.38,540.36 L 556.07,540.57 L 557.26,541.00 L 557.55,541.25 L 557.94,541.76 L 557.85,542.07 L 557.48,542.70 L 557.03,543.08 L 555.94,543.87 L 555.14,544.33 L 553.37,545.30 L 552.25,545.87 L 544.13,549.49 L 538.30,551.65 L 535.22,552.59 L 528.95,554.38 L 525.70,555.11 L 519.14,556.48 L 515.79,557.00 L 511.30,557.63 L 508.95,557.88 L 504.19,558.34 L 501.76,558.51 L 491.99,559.02 L 487.30,559.02 L 482.67,558.98 L 480.49,558.89 L 476.21,558.68 L 474.26,558.51 L 470.49,558.14 L 468.85,557.88 L 465.75,557.34 L 464.50,557.00 L 461.73,556.26 L 460.05,555.83 L 459.36,555.65 L 458.08,555.33 L 457.64,555.23 L 456.92,555.07 L 456.83,555.06 L 456.32,554.83 L 455.79,554.50 L 455.45,554.26 L 453.92,553.12 L 453.08,552.41 L 451.17,550.19 L 450.32,548.48 L 450.10,547.54 L 449.82,545.61 L 449.91,544.61 L 450.23,542.57 L 450.62,541.54 L 451.34,540.44 L 452.09,539.72 L 452.59,539.38 L 453.68,538.70 L 454.34,538.37 L 455.72,537.74 L 456.51,537.43 L 459.94,536.27 L 461.97,535.77 L 466.21,534.84 L 468.55,534.47 L 473.34,533.79 L 475.85,533.57 L 480.92,533.21 L 483.47,533.16 L 488.54,533.15 M 556.76,285.69 L 554.98,285.71 L 554.27,285.73 L 552.95,285.79 L 552.43,285.85 L 551.48,285.97 L 551.12,286.06 L 550.45,286.26 L 550.20,286.38 L 549.34,286.97 L 549.00,287.41 L 548.38,288.47 L 547.67,289.81 L 547.18,290.76 L 546.13,292.85 L 545.49,294.15 L 544.13,296.89 L 543.35,298.48 L 541.74,301.79 L 540.85,303.62 L 539.03,307.39 L 538.06,309.41 L 536.08,313.55 L 535.05,315.72 L 532.95,320.14 L 531.88,322.41 L 530.17,326.03 L 528.93,328.64 L 528.27,330.04 L 525.53,335.85 L 524.02,339.05 L 520.92,345.61 L 519.27,349.10 L 515.91,356.21 L 514.17,359.88 L 507.11,374.83 L 503.60,382.25 L 500.12,389.62 L 498.43,393.18 L 495.12,400.20 L 493.55,403.50 L 484.37,422.95 L 481.46,429.12 L 480.09,432.05 L 477.39,437.77 L 476.15,440.41 L 473.75,445.53 L 472.68,447.80 L 470.64,452.15 L 469.79,453.98 L 468.96,455.75 L 468.59,456.54 L 467.89,458.06 L 467.58,458.71 L 467.01,459.95 L 466.77,460.45 L 466.34,461.40 L 466.18,461.75 L 464.32,465.73 L 463.18,468.06 L 462.70,468.99 L 461.82,470.67 L 461.51,471.19 L 461.23,471.65 L 461.13,471.79 L 460.96,472.00 L 460.92,472.00 L 460.61,471.74 L 460.34,471.34 L 460.19,471.04 L 459.56,469.64 L 459.26,468.75 L 458.95,467.90 L 458.61,467.04 L 458.38,466.47 L 457.89,465.25 L 457.60,464.52 L 456.98,463.00 L 456.62,462.14 L 455.10,458.46 L 454.23,456.36 L 452.41,452.01 L 451.45,449.72 L 449.50,445.10 L 448.54,442.82 L 446.63,438.32 L 445.74,436.26 L 444.04,432.28 L 443.31,430.62 L 442.62,429.02 L 442.32,428.33 L 441.74,427.03 L 441.50,426.50 L 441.14,425.68 L 440.78,424.86 L 440.55,424.32 L 440.05,423.15 L 439.75,422.45 L 439.12,420.97 L 438.76,420.13 L 438.01,418.37 L 437.60,417.40 L 436.74,415.39 L 436.28,414.30 L 434.35,409.75 L 433.28,407.21 L 431.07,401.99 L 429.89,399.22 L 427.51,393.58 L 426.29,390.69 L 421.37,379.01 L 419.06,373.50 L 415.17,364.28 L 412.85,358.78 L 411.81,356.35 L 409.82,351.68 L 408.95,349.65 L 407.28,345.79 L 406.57,344.16 L 405.22,341.08 L 404.66,339.83 L 403.62,337.53 L 403.21,336.65 L 402.46,335.08 L 402.20,334.56 L 401.74,333.71 L 401.61,333.55 L 401.07,333.21 L 400.44,332.99 L 400.00,332.88 L 399.05,332.65 L 398.48,332.54 L 397.26,332.32 L 396.57,332.22 L 393.61,331.80 L 391.93,331.61 L 388.46,331.25 L 386.67,331.10 L 383.09,330.83 L 381.40,330.75 L 378.12,330.61 L 376.72,330.59 L 375.38,330.59 L 374.79,330.61 L 373.69,330.65 L 373.24,330.69 L 372.42,330.78 L 372.13,330.85 L 371.65,330.99 L 371.55,331.09 L 371.33,331.78 L 371.39,332.58 L 371.54,333.20 L 371.91,334.59 L 372.23,335.54 L 372.98,337.65 L 373.50,339.01 L 374.05,340.43 L 374.37,341.23 L 375.04,342.88 L 375.41,343.80 L 376.20,345.70 L 376.63,346.75 L 377.54,348.91 L 378.05,350.10 L 379.08,352.54 L 379.65,353.87 L 380.83,356.61 L 381.47,358.10 L 382.79,361.15 L 383.51,362.80 L 384.98,366.18 L 385.77,368.00 L 389.44,376.44 L 391.96,382.24 L 393.16,385.00 L 394.34,387.73 L 394.89,389.02 L 395.98,391.54 L 396.48,392.69 L 397.44,394.92 L 397.86,395.89 L 398.66,397.74 L 398.98,398.50 L 400.20,401.33 L 401.24,403.75 L 401.86,405.18 L 403.16,408.18 L 403.89,409.87 L 405.39,413.35 L 406.21,415.23 L 407.87,419.07 L 408.75,421.09 L 410.52,425.19 L 411.43,427.29 L 415.13,435.81 L 416.95,440.00 L 422.61,453.03 L 426.43,461.82 L 428.22,465.95 L 429.98,470.00 L 430.80,471.90 L 432.41,475.60 L 433.13,477.27 L 434.53,480.48 L 435.13,481.86 L 436.26,484.47 L 436.71,485.50 L 439.31,491.40 L 440.90,494.94 L 441.58,496.39 L 442.23,497.78 L 442.52,498.37 L 443.06,499.49 L 443.28,499.93 L 443.69,500.73 L 443.83,500.99 L 444.09,501.43 L 444.15,501.50 L 444.58,501.74 L 445.09,501.94 L 445.44,502.06 L 447.11,502.55 L 448.25,502.83 L 450.73,503.42 L 452.18,503.73 L 455.19,504.34 L 456.80,504.64 L 460.04,505.21 L 461.62,505.46 L 464.71,505.93 L 466.09,506.11 L 468.70,506.43 L 469.72,506.52 L 470.67,506.60 L 471.06,506.62 L 471.76,506.65 L 472.00,506.64 L 474.11,506.34 L 474.68,506.07 L 474.96,505.85 L 475.53,505.33 L 475.83,504.94 L 476.46,504.08 L 476.82,503.49 L 477.57,502.19 L 478.02,501.35 L 478.98,499.54 L 479.56,498.40 L 480.79,495.97 L 481.53,494.50 L 484.21,489.09 L 486.13,485.18 L 487.07,483.23 L 488.94,479.38 L 489.77,477.64 L 490.58,475.93 L 490.95,475.15 L 491.65,473.65 L 491.95,473.00 L 495.69,464.96 L 498.47,459.02 L 499.99,455.76 L 503.13,449.07 L 504.84,445.44 L 508.35,438.00 L 510.24,434.00 L 511.95,430.36 L 513.16,427.80 L 513.85,426.35 L 515.28,423.30 L 516.14,421.48 L 517.02,419.60 L 517.51,418.57 L 518.51,416.45 L 519.06,415.28 L 520.20,412.86 L 520.82,411.52 L 522.12,408.77 L 522.83,407.26 L 524.30,404.13 L 525.11,402.42 L 526.77,398.88 L 527.68,396.94 L 529.56,392.95 L 530.59,390.77 L 532.69,386.29 L 533.84,383.85 L 536.20,378.83 L 537.48,376.11 L 540.11,370.52 L 541.53,367.50 L 544.26,361.68 L 546.18,357.60 L 547.16,355.49 L 551.16,346.95 L 553.11,342.75 L 555.06,338.59 L 555.99,336.59 L 557.82,332.65 L 558.68,330.81 L 560.34,327.22 L 561.09,325.61 L 562.53,322.50 L 563.14,321.17 L 566.83,313.20 L 569.23,308.08 L 570.31,305.79 L 571.36,303.56 L 571.84,302.55 L 572.76,300.61 L 573.17,299.76 L 573.93,298.17 L 574.25,297.53 L 574.82,296.36 L 575.02,295.95 L 576.66,292.67 L 577.47,290.91 L 577.71,290.21 L 578.06,288.94 L 578.04,288.46 L 577.85,287.59 L 577.52,287.27 L 576.69,286.73 L 576.01,286.54 L 574.46,286.23 L 573.38,286.14 L 571.02,285.98 L 569.51,285.93 L 566.25,285.85 L 564.25,285.80 L 560.05,285.72 L 557.72,285.69 Z" fill="rgba(12,36,69,1)"/>
<path d="M 463.90,573.50 L 460.83,573.13 L 455.12,572.13 L 452.33,571.59 L 447.21,570.27 L 444.73,569.57 L 440.21,567.92 L 438.03,567.06 L 434.14,565.11 L 432.27,564.09 L 429.01,561.84 L 427.46,560.67 L 424.85,558.12 L 423.63,556.80 L 421.68,553.96 L 419.52,549.38 L 419.18,548.38 L 418.83,546.43 L 418.72,545.46 L 418.85,543.58 L 418.97,542.65 L 419.55,540.84 L 419.91,539.95 L 420.96,538.22 L 421.54,537.36 L 423.06,535.71 L 423.88,534.89 L 425.86,533.30 L 426.91,532.52 L 429.36,531.01 L 433.55,528.83 L 435.18,528.07 L 438.75,526.74 L 440.60,526.11 L 444.77,525.03 L 446.95,524.52 L 451.95,523.67 L 453.26,523.47 L 456.08,523.12 L 457.52,522.94 L 460.62,522.63 L 462.21,522.49 L 465.63,522.23 L 467.38,522.10 L 471.13,521.89 L 473.05,521.78 L 477.18,521.61 L 479.29,521.53 L 483.80,521.39 L 486.12,521.33 L 491.06,521.24 L 493.59,521.19 L 498.98,521.13 L 501.74,521.10 L 507.62,521.07 L 517.00,521.06 L 520.86,521.06 L 527.96,521.10 L 531.41,521.13 L 537.73,521.22 L 540.79,521.27 L 546.37,521.41 L 549.07,521.49 L 553.93,521.68 L 556.28,521.79 L 560.48,522.03 L 562.49,522.16 L 566.05,522.46 L 567.75,522.62 L 570.71,522.98 L 574.52,523.58 L 575.18,523.71 L 576.33,523.69 L 576.90,523.61 L 578.16,523.02 L 578.50,522.82 L 579.27,522.29 L 579.67,521.99 L 580.60,521.24 L 581.09,520.83 L 582.23,519.84 L 584.22,518.03 L 585.80,516.59 L 588.90,513.40 L 590.43,511.76 L 593.40,508.27 L 594.87,506.49 L 597.63,502.81 L 598.99,500.95 L 601.48,497.18 L 602.69,495.29 L 604.85,491.55 L 605.87,489.69 L 607.61,486.08 L 608.42,484.31 L 609.68,480.95 L 610.94,476.32 L 611.16,475.17 L 611.37,472.78 L 611.44,471.57 L 611.36,469.11 L 611.29,467.88 L 610.95,465.43 L 610.75,464.21 L 610.17,461.83 L 609.85,460.65 L 609.04,458.42 L 608.61,457.32 L 607.59,455.30 L 607.06,454.32 L 605.85,452.58 L 603.85,450.36 L 603.01,449.60 L 600.86,448.13 L 600.26,447.76 L 598.86,446.99 L 598.12,446.60 L 596.38,445.77 L 595.46,445.34 L 593.30,444.41 L 592.17,443.93 L 589.54,442.87 L 588.16,442.32 L 584.97,441.09 L 579.50,439.03 L 577.57,438.32 L 573.67,436.81 L 571.74,436.05 L 568.14,434.58 L 566.42,433.87 L 563.55,432.62 L 562.89,432.33 L 561.79,431.82 L 560.50,431.18 L 559.60,430.70 L 557.76,429.53 L 556.84,428.91 L 554.99,427.48 L 553.14,426.00 L 549.58,422.46 L 547.85,420.62 L 544.76,416.62 L 541.00,410.48 L 540.60,409.68 L 539.93,408.30 L 539.61,407.63 L 539.10,406.46 L 538.62,405.31 L 538.06,403.26 L 537.83,402.22 L 537.63,399.81 L 537.60,399.15 L 537.57,397.64 L 537.58,395.00 L 537.61,392.32 L 538.17,387.48 L 538.54,385.14 L 539.82,380.96 L 540.54,378.94 L 542.55,375.35 L 546.40,370.55 L 547.82,369.12 L 551.11,366.53 L 552.82,365.28 L 556.60,363.05 L 558.53,361.99 L 562.67,360.17 L 564.78,359.31 L 569.18,357.92 L 571.39,357.29 L 575.93,356.37 L 578.20,355.97 L 582.77,355.55 L 585.04,355.41 L 589.51,355.53 L 596.00,356.34 L 597.76,356.69 L 600.86,357.38 L 602.35,357.73 L 605.00,358.46 L 606.27,358.83 L 608.56,359.66 L 609.68,360.09 L 611.73,361.06 L 612.73,361.57 L 614.65,362.76 L 615.60,363.38 L 617.49,364.82 L 618.44,365.58 L 620.42,367.34 L 623.59,370.40 L 625.41,372.23 L 628.66,375.83 L 630.22,377.62 L 632.96,381.20 L 634.26,383.00 L 636.52,386.62 L 637.58,388.45 L 639.38,392.18 L 640.23,394.07 L 641.60,397.98 L 642.23,399.96 L 643.21,404.11 L 643.65,406.22 L 644.25,410.67 L 644.78,417.75 L 645.24,430.00 L 637.27,430.00 L 636.18,430.00 L 633.58,429.95 L 632.25,429.92 L 629.43,429.81 L 628.03,429.76 L 625.33,429.61 L 621.78,429.36 L 614.27,428.73 L 613.58,417.61 L 613.47,415.96 L 613.23,412.97 L 613.09,411.52 L 612.78,408.89 L 612.61,407.61 L 612.20,405.27 L 611.98,404.13 L 611.46,402.01 L 610.91,399.93 L 609.41,396.12 L 606.41,390.39 L 605.26,388.48 L 602.99,385.22 L 601.86,383.68 L 599.59,381.14 L 598.45,379.95 L 596.12,378.06 L 592.50,375.90 L 591.40,375.39 L 589.29,374.69 L 588.25,374.39 L 586.27,374.09 L 585.30,373.99 L 583.48,374.08 L 582.58,374.16 L 580.91,374.60 L 580.10,374.87 L 578.60,375.64 L 577.88,376.06 L 576.57,377.14 L 575.94,377.71 L 574.83,379.07 L 574.30,379.78 L 573.40,381.39 L 572.97,382.22 L 572.29,384.07 L 571.98,385.02 L 571.54,387.07 L 571.35,388.11 L 571.16,390.34 L 571.09,391.48 L 571.16,393.87 L 571.22,395.08 L 571.56,397.59 L 571.77,398.87 L 572.40,401.49 L 572.75,402.82 L 573.67,405.52 L 575.41,409.65 L 576.43,411.80 L 578.75,416.11 L 579.31,417.11 L 580.32,418.81 L 581.56,420.66 L 582.09,421.36 L 583.43,422.67 L 584.15,423.32 L 585.90,424.54 L 586.82,425.14 L 588.99,426.28 L 590.12,426.84 L 592.72,427.90 L 594.08,428.42 L 597.13,429.41 L 598.72,429.89 L 602.25,430.82 L 604.07,431.28 L 608.09,432.15 L 614.70,433.40 L 617.27,433.84 L 621.79,435.10 L 623.96,435.80 L 627.87,437.65 L 629.76,438.67 L 633.30,441.26 L 638.44,446.11 L 639.51,447.27 L 641.15,449.23 L 641.90,450.19 L 643.04,451.99 L 643.57,452.91 L 644.40,454.89 L 645.51,458.40 L 646.13,460.69 L 646.73,465.35 L 646.93,467.69 L 646.69,472.48 L 646.46,474.89 L 645.37,479.82 L 644.72,482.30 L 642.78,487.36 L 641.71,489.91 L 638.92,495.12 L 637.42,497.74 L 633.77,503.10 L 631.84,505.79 L 627.34,511.30 L 619.63,519.75 L 618.65,520.75 L 616.97,522.57 L 616.19,523.43 L 614.99,524.87 L 614.45,525.53 L 613.85,526.43 L 613.75,526.61 L 613.67,526.85 L 613.77,527.00 L 613.85,527.00 L 614.31,527.03 L 614.59,527.05 L 615.40,527.12 L 615.85,527.16 L 616.97,527.26 L 617.57,527.31 L 618.96,527.44 L 620.41,527.57 L 623.91,527.91 L 629.74,528.49 L 630.76,528.59 L 633.24,528.84 L 634.54,528.97 L 637.52,529.27 L 639.06,529.42 L 642.42,529.75 L 644.14,529.93 L 647.79,530.29 L 651.47,530.65 L 659.20,531.41 L 670.44,532.51 L 674.01,532.86 L 680.55,533.54 L 682.12,533.70 L 685.01,534.02 L 686.40,534.17 L 688.91,534.45 L 690.11,534.59 L 692.16,534.84 L 693.12,534.95 L 694.64,535.16 L 695.33,535.25 L 696.25,535.40 L 696.88,535.55 L 697.02,535.69 L 697.07,536.04 L 697.05,536.22 L 696.81,536.64 L 696.50,537.07 L 695.16,538.03 L 694.40,538.52 L 692.36,539.46 L 688.84,540.66 L 688.47,540.76 L 687.37,540.99 L 686.76,541.11 L 685.23,541.38 L 684.41,541.51 L 682.52,541.81 L 681.53,541.96 L 679.34,542.27 L 677.09,542.58 L 671.99,543.23 L 664.00,544.13 L 662.00,544.34 L 658.34,544.70 L 656.55,544.87 L 653.18,545.15 L 649.85,545.41 L 643.40,545.71 L 641.75,545.77 L 638.31,545.84 L 636.54,545.87 L 632.75,545.89 L 630.79,545.89 L 626.49,545.86 L 619.30,545.76 L 617.53,545.73 L 614.30,545.67 L 612.74,545.65 L 609.89,545.62 L 608.52,545.60 L 606.02,545.59 L 604.82,545.59 L 602.65,545.60 L 601.60,545.61 L 599.71,545.66 L 598.80,545.69 L 597.16,545.78 L 595.58,545.88 L 593.05,546.21 L 591.86,546.40 L 589.90,546.96 L 588.97,547.27 L 587.34,548.09 L 586.54,548.54 L 584.96,549.67 L 582.37,551.75 L 580.64,553.20 L 576.87,555.90 L 574.94,557.21 L 570.91,559.57 L 568.88,560.69 L 564.77,562.61 L 558.73,564.86 L 557.18,565.34 L 553.71,566.27 L 551.92,566.72 L 548.01,567.60 L 546.01,568.03 L 541.72,568.86 L 539.53,569.26 L 534.91,570.02 L 530.22,570.76 L 520.09,572.01 L 504.24,573.47 L 502.71,573.58 L 499.91,573.78 L 498.56,573.88 L 496.07,574.05 L 493.66,574.21 L 489.63,574.46 L 487.73,574.57 L 484.50,574.71 L 482.96,574.76 L 480.26,574.79 L 477.64,574.79 L 472.79,574.47 L 471.52,574.36 L 468.73,574.07 L 467.28,573.90 M 515.79,557.00 L 519.14,556.48 L 525.70,555.11 L 528.95,554.38 L 535.22,552.59 L 538.30,551.65 L 544.13,549.49 L 552.25,545.87 L 553.37,545.30 L 555.14,544.33 L 555.94,543.87 L 557.03,543.08 L 557.48,542.70 L 557.85,542.07 L 557.94,541.76 L 557.55,541.25 L 557.26,541.00 L 556.07,540.57 L 555.38,540.36 L 553.36,539.99 L 552.25,539.81 L 549.36,539.45 L 544.01,538.92 L 538.94,538.46 L 529.04,537.50 L 526.62,537.26 L 521.98,536.79 L 519.71,536.56 L 515.45,536.11 L 513.38,535.89 L 509.61,535.48 L 507.80,535.27 L 504.64,534.91 L 503.15,534.73 L 500.71,534.42 L 498.00,534.03 L 495.79,533.68 L 490.99,533.29 L 488.54,533.15 L 483.47,533.16 L 480.92,533.21 L 475.85,533.57 L 473.34,533.79 L 468.55,534.47 L 466.21,534.84 L 461.97,535.77 L 459.94,536.27 L 456.51,537.43 L 455.72,537.74 L 454.34,538.37 L 453.68,538.70 L 452.59,539.38 L 452.09,539.72 L 451.34,540.44 L 450.62,541.54 L 450.23,542.57 L 449.91,544.61 L 449.82,545.61 L 450.10,547.54 L 450.32,548.48 L 451.17,550.19 L 453.08,552.41 L 453.92,553.12 L 455.45,554.26 L 455.79,554.50 L 456.32,554.83 L 456.83,555.06 L 456.92,555.07 L 457.64,555.23 L 458.08,555.33 L 459.36,555.65 L 460.05,555.83 L 461.73,556.26 L 464.50,557.00 L 465.75,557.34 L 468.85,557.88 L 470.49,558.14 L 474.26,558.51 L 476.21,558.68 L 480.49,558.89 L 482.67,558.98 L 487.30,559.02 L 491.99,559.02 L 501.76,558.51 L 504.19,558.34 L 508.95,557.88 L 511.30,557.63 M 456.80,504.64 L 455.19,504.34 L 452.18,503.73 L 450.73,503.42 L 448.25,502.83 L 447.11,502.55 L 445.44,502.06 L 445.09,501.94 L 444.58,501.74 L 444.15,501.50 L 444.09,501.43 L 443.83,500.99 L 443.69,500.73 L 443.28,499.93 L 443.06,499.49 L 442.52,498.37 L 442.23,497.78 L 441.58,496.39 L 440.90,494.94 L 439.31,491.40 L 436.71,485.50 L 436.26,484.47 L 435.13,481.86 L 434.53,480.48 L 433.13,477.27 L 432.41,475.60 L 430.80,471.90 L 429.98,470.00 L 428.22,465.95 L 426.43,461.82 L 422.61,453.03 L 416.95,440.00 L 415.13,435.81 L 411.43,427.29 L 410.52,425.19 L 408.75,421.09 L 407.87,419.07 L 406.21,415.23 L 405.39,413.35 L 403.89,409.87 L 403.16,408.18 L 401.86,405.18 L 401.24,403.75 L 400.20,401.33 L 398.98,398.50 L 398.66,397.74 L 397.86,395.89 L 397.44,394.92 L 396.48,392.69 L 395.98,391.54 L 394.89,389.02 L 394.34,387.73 L 393.16,385.00 L 391.96,382.24 L 389.44,376.44 L 385.77,368.00 L 384.98,366.18 L 383.51,362.80 L 382.79,361.15 L 381.47,358.10 L 380.83,356.61 L 379.65,353.87 L 379.08,352.54 L 378.05,350.10 L 377.54,348.91 L 376.63,346.75 L 376.20,345.70 L 375.41,343.80 L 375.04,342.88 L 374.37,341.23 L 374.05,340.43 L 373.50,339.01 L 372.98,337.65 L 372.23,335.54 L 371.91,334.59 L 371.54,333.20 L 371.39,332.58 L 371.33,331.78 L 371.55,331.09 L 371.65,330.99 L 372.13,330.85 L 372.42,330.78 L 373.24,330.69 L 373.69,330.65 L 374.79,330.61 L 375.38,330.59 L 376.72,330.59 L 378.12,330.61 L 381.40,330.75 L 383.09,330.83 L 386.67,331.10 L 388.46,331.25 L 391.93,331.61 L 393.61,331.80 L 396.57,332.22 L 397.26,332.32 L 398.48,332.54 L 399.05,332.65 L 400.00,332.88 L 400.44,332.99 L 401.07,333.21 L 401.61,333.55 L 401.74,333.71 L 402.20,334.56 L 402.46,335.08 L 403.21,336.65 L 403.62,337.53 L 404.66,339.83 L 405.22,341.08 L 406.57,344.16 L 407.28,345.79 L 408.95,349.65 L 409.82,351.68 L 411.81,356.35 L 412.85,358.78 L 415.17,364.28 L 419.06,373.50 L 421.37,379.01 L 426.29,390.69 L 427.51,393.58 L 429.89,399.22 L 431.07,401.99 L 433.28,407.21 L 434.35,409.75 L 436.28,414.30 L 436.74,415.39 L 437.60,417.40 L 438.01,418.37 L 438.76,420.13 L 439.12,420.97 L 439.75,422.45 L 440.05,423.15 L 440.55,424.32 L 440.78,424.86 L 441.14,425.68 L 441.50,426.50 L 441.74,427.03 L 442.32,428.33 L 442.62,429.02 L 443.31,430.62 L 444.04,432.28 L 445.74,436.26 L 446.63,438.32 L 448.54,442.82 L 449.50,445.10 L 451.45,449.72 L 452.41,452.01 L 454.23,456.36 L 455.10,458.46 L 456.62,462.14 L 456.98,463.00 L 457.60,464.52 L 457.89,465.25 L 458.38,466.47 L 458.61,467.04 L 458.95,467.90 L 459.26,468.75 L 459.56,469.64 L 460.19,471.04 L 460.34,471.34 L 460.61,471.74 L 460.92,472.00 L 460.96,472.00 L 461.13,471.79 L 461.23,471.65 L 461.51,471.19 L 461.82,470.67 L 462.70,468.99 L 463.18,468.06 L 464.32,465.73 L 466.18,461.75 L 466.34,461.40 L 466.77,460.45 L 467.01,459.95 L 467.58,458.71 L 467.89,458.06 L 468.59,456.54 L 468.96,455.75 L 469.79,453.98 L 470.64,452.15 L 472.68,447.80 L 473.75,445.53 L 476.15,440.41 L 477.39,437.77 L 480.09,432.05 L 481.46,429.12 L 484.37,422.95 L 493.55,403.50 L 495.12,400.20 L 498.43,393.18 L 500.12,389.62 L 503.60,382.25 L 507.11,374.83 L 514.17,359.88 L 515.91,356.21 L 519.27,349.10 L 520.92,345.61 L 524.02,339.05 L 525.53,335.85 L 528.27,330.04 L 528.93,328.64 L 530.17,326.03 L 531.88,322.41 L 532.95,320.14 L 535.05,315.72 L 536.08,313.55 L 538.06,309.41 L 539.03,307.39 L 540.85,303.62 L 541.74,301.79 L 543.35,298.48 L 544.13,296.89 L 545.49,294.15 L 546.13,292.85 L 547.18,290.76 L 547.67,289.81 L 548.38,288.47 L 549.00,287.41 L 549.34,286.97 L 550.20,286.38 L 550.45,286.26 L 551.12,286.06 L 551.48,285.97 L 552.43,285.85 L 552.95,285.79 L 554.27,285.73 L 554.98,285.71 L 556.76,285.69 L 557.72,285.69 L 560.05,285.72 L 564.25,285.80 L 566.25,285.85 L 569.51,285.93 L 571.02,285.98 L 573.38,286.14 L 574.46,286.23 L 576.01,286.54 L 576.69,286.73 L 577.52,287.27 L 577.85,287.59 L 578.04,288.46 L 578.06,288.94 L 577.71,290.21 L 577.47,290.91 L 576.66,292.67 L 575.02,295.95 L 574.82,296.36 L 574.25,297.53 L 573.93,298.17 L 573.17,299.76 L 572.76,300.61 L 571.84,302.55 L 571.36,303.56 L 570.31,305.79 L 569.23,308.08 L 566.83,313.20 L 563.14,321.17 L 562.53,322.50 L 561.09,325.61 L 560.34,327.22 L 558.68,330.81 L 557.82,332.65 L 555.99,336.59 L 555.06,338.59 L 553.11,342.75 L 551.16,346.95 L 547.16,355.49 L 546.18,357.60 L 544.26,361.68 L 541.53,367.50 L 540.11,370.52 L 537.48,376.11 L 536.20,378.83 L 533.84,383.85 L 532.69,386.29 L 530.59,390.77 L 529.56,392.95 L 527.68,396.94 L 526.77,398.88 L 525.11,402.42 L 524.30,404.13 L 522.83,407.26 L 522.12,408.77 L 520.82,411.52 L 520.20,412.86 L 519.06,415.28 L 518.51,416.45 L 517.51,418.57 L 517.02,419.60 L 516.14,421.48 L 515.28,423.30 L 513.85,426.35 L 513.16,427.80 L 511.95,430.36 L 510.24,434.00 L 508.35,438.00 L 504.84,445.44 L 503.13,449.07 L 499.99,455.76 L 498.47,459.02 L 495.69,464.96 L 491.95,473.00 L 491.65,473.65 L 490.95,475.15 L 490.58,475.93 L 489.77,477.64 L 488.94,479.38 L 487.07,483.23 L 486.13,485.18 L 484.21,489.09 L 481.53,494.50 L 480.79,495.97 L 479.56,498.40 L 478.98,499.54 L 478.02,501.35 L 477.57,502.19 L 476.82,503.49 L 476.46,504.08 L 475.83,504.94 L 475.53,505.33 L 474.96,505.85 L 474.68,506.07 L 474.11,506.34 L 472.00,506.64 L 471.76,506.65 L 471.06,506.62 L 470.67,506.60 L 469.72,506.52 L 468.70,506.43 L 466.09,506.11 L 464.71,505.93 L 461.62,505.46 L 460.04,505.21 Z" fill="rgba(253,254,253,1)"/>
</g>
</svg>